<svg width="229" height="229" viewBox="0 0 229 229" fill="none" xmlns="http://www.w3.org/2000/svg">
<rect width="229" height="229" rx="5" fill="#FBFBFB"/>
<path d="M49.5293 201.687L49.8338 200.55L49.5526 200.101L50.0627 198.274L49.7413 196.594L49.1354 194.962L48.777 193.279L48.9222 191.135L49.3671 189.359L49.9143 187.725L50.3315 185.992L46.2911 185.267L45.8397 185.316L45.6973 185.868L45.6015 188.438L45.3633 188.77L44.9924 188.843L44.5072 189.394L43.9846 190.136L43.3973 190.482L42.8099 190.347L42.2905 189.618L41.8576 187.968L41.9103 186.379L42.1485 184.77L42.2909 183.043L43.0018 181.738L44.5817 181.5L46.18 181.971L46.9839 182.816L46.4737 182.952L46.0626 183.295L45.4012 184.175L45.5186 184.919L47.7816 185.251L49.8527 185.746L50.6195 185.435L50.533 184.172L49.8342 181.906L49.3458 179.053L49.0614 176.202L49.1354 175.437L49.4754 174.498L49.5526 173.922L49.4878 173.069L49.0614 171.395L48.7182 168.378L48.4398 166.949L47.8927 165.666L46.9376 164.905L45.5742 164.57L43.0424 164.502L41.2155 163.924L39.6666 162.468L36.2196 157.299L36.2506 156.823L37.0544 156.673V156.252L36.325 155.953L35.4532 155.879L34.6031 156.101L33.9446 156.673L33.5088 157.619L33.6231 158.25L34.7516 159.463L34.3992 159.547L34.1674 159.709L33.6851 160.38L34.5629 160.541L35.5956 161.216L36.461 162.217L36.8195 163.376L36.3311 163.564L31.7837 159.766L30.8564 159.219L28.6304 158.807L28.0463 158.214L28 157.217L30.1363 151.479L30.8536 148.872L31.3295 146.098L31.3943 143.363L29.5799 130.066L29.3944 129.378L29.283 129.237L29.246 128.914L29.283 128.599L29.3944 128.455L29.6233 128.533L29.7255 128.707L29.7903 128.881L29.9017 128.958L30.1491 129.318L31.095 134.52L31.7749 136.314L31.8739 137.063L31.7841 137.711L31.4132 138.638L31.3295 139.393L31.4595 140.32L31.7841 140.51L33.4907 139.547L35.3052 138.099L36.1617 137.793L37.6426 136.62L39.1573 135.024L39.3705 133.922L39.1263 132.747L38.5945 131.599L37.9886 130.564L36.5664 128.707V126.601L36.1335 124.161L35.1567 122.599L33.8399 121.649L30.9091 120.305L30.1145 120.196L29.7714 120.77L29.8084 123.678L29.7436 125.057L29.5119 126.6L29.6511 127.731L29.5489 128.168L28.9925 127.991L28.8348 127.632L28.6711 126.924L28.5286 126.105L28.3556 121.169L28.4731 119.63L29.3912 115.368L29.5119 113.762L29.079 90.0118L29.2399 88.8564L29.5119 87.6692L31.2185 81.7005L31.9881 79.8458L32.5538 78.9503L32.7855 79.1333L32.9372 79.7388L33.2864 80.0824L33.2586 80.572L32.4053 82.8141L32.1084 83.43V83.9023L32.3434 84.1385L32.6 84.2648L33.2864 84.3324L33.4163 84.6273L33.5648 85.2931L33.7655 85.9589L34.0745 86.2567L35.6326 86.5403L36.0498 86.8295L35.5027 87.161L35.6419 87.7955L35.5397 88.9067L35.7622 89.5548L36.1054 89.8268L36.4023 89.653L36.5105 89.1875L36.2816 88.6122V88.1407L37.478 87.7448L39.3234 87.6941L41.0111 88.0421L41.747 88.8475L42.0994 88.9626L43.979 90.4938L44.5044 90.2528L44.9928 89.6554L45.4008 88.8842L45.6852 88.1407H45.9201L47.07 91.3801L47.1009 91.9071L46.9557 92.1984L47.0144 92.8485L47.2619 93.4926L47.8834 93.9967L48.6253 94.9655L49.061 95.2399L49.7103 95.2286L52.0288 94.7249L52.2791 94.599L52.4831 94.2546L52.6158 93.7256L52.6685 93.0843L52.6778 92.0785L52.7273 91.3974L52.9497 89.9845L53.1135 89.589L53.3142 89.4293L53.3947 89.2048L53.206 88.613L52.028 87.67L51.6479 87.6334L51.3602 87.4676L51.1872 87.114L51.1317 86.5157L50.9615 85.9034L50.3154 85.555L50.3307 84.847L50.8344 84.3835L52.572 84.2656L55.0232 80.0832L55.5949 79.7424L57.1563 79.2524L59.2523 79.1595L59.3264 79.0074L58.4175 78.6638L56.7576 78.6075L56.3682 78.2217L56.7206 76.9874L57.277 75.902L57.7284 75.3154L58.9373 74.4074L60.7332 72.6352L61.4381 72.4686L61.8525 72.5531L62.5541 72.906L62.9806 72.9904L63.4255 72.8661L63.6572 72.5781L63.8427 72.2478L64.1456 71.9935L64.8135 71.9682L65.6853 72.2562L66.4396 72.8323L66.7643 73.6736L66.99 75.2957L67.5218 76.2572L68.1338 76.9367L68.6004 77.7172L69.1013 79.1764L68.044 79.4411L66.928 81.237L65.9637 81.4985V82.0135L66.1182 82.6435L65.707 83.2538L64.6683 84.3332L64.3126 85.3112L64.2692 86.1846L64.4269 88.3772L64.7145 89.0423L65.3389 88.93L65.9633 88.1922L66.4702 85.9348L67.0326 85.7803L67.719 85.9179L68.3188 85.7859L68.0807 85.1258L67.7745 84.8812L67.4096 84.9656L67.0234 85.2746L67.311 84.5215L67.6079 83.982L67.8739 83.3862L68.0593 82.4444H68.3188L68.0899 83.9965L69.0824 84.2326L70.4366 83.9965L71.2899 84.1147L71.8061 84.4688L72.3842 84.3509L72.9068 84.4044L73.2532 85.2754L73.1417 85.9525L72.2699 87.2359L71.9235 88.1423L72.3379 88.3109L72.4184 88.6138L72.4429 89.0318L72.7024 89.5564L73.0733 89.935L74.0256 90.4958L74.1801 90.7819L74.2726 91.1548L74.4335 91.4493L74.8045 91.4831L75.3516 90.3309L75.5834 89.9861L76.1212 90.491L76.5851 89.9414L76.5726 89.0692L75.7226 88.6146L74.5446 89.3215L74.4706 89.5319L74.2976 89.5934L73.8957 89.5568L73.571 89.3689L73.5493 88.9706L73.6635 88.6395L73.7653 88.6142L73.8333 86.0511L74.4577 83.8428L74.7976 81.8855L74.7944 81.8715L74.0248 80.0844L73.6539 79.662L73.4559 79.5043L72.7016 79.6085L71.1744 80.3177L70.7975 80.858L69.9751 81.3899L69.1713 81.4406L68.8374 80.5543L69.2638 79.7183L71.0135 78.6453L71.4094 77.4818L71.6258 76.5123L71.5486 76.0331L70.5995 75.6948L70.2101 75.3508L69.8794 74.891L69.6199 74.4086L69.4191 73.9516L69.2027 73.2487L69.0603 72.4216L69.1005 71.563L69.2952 71.3341L70.167 69.9526L70.266 69.6247L70.4454 69.2659L70.4145 68.46L70.235 67.6626L69.994 67.2977L69.5487 67.2044L69.2119 66.9666L68.6 66.3044L69.3081 64.5665L70.019 63.1869L70.7886 62.0617L71.9666 60.8427L72.2325 60.6837L72.5169 60.5872L72.8476 60.5586L73.0484 60.3374L73.2588 59.3501L73.3823 59.1288L79.0147 57.2267L80.2699 57.2665L84.7029 59.1288V59.6482L84.2178 59.9745L84.1836 60.4058L84.4772 60.8141L84.9874 61.078L85.5068 61.0297L85.8777 60.6697L87.2629 58.4566L87.8905 57.1961L88.5861 56.1992L90.0762 55.6452L91.3314 54.841L93.1491 55.3185L97.2019 54.841L94.9546 52.7369L93.8169 52.3044L93.0473 51.6498L92.6393 51.499L92.3332 51.6696L90.9979 53.4989L90.2685 54.2665L89.4587 54.6531L88.7478 54.1015L88.0614 53.4019L87.3381 53.5982L86.0088 54.8406L84.4785 55.4887L81.1799 55.5398L72.4872 58.6923L71.7361 58.7659L71.0159 58.4397L66.7651 54.8406L67.0061 55.7615L66.6999 56.233L65.4479 56.7499L64.5206 57.4544L64.0354 57.693L63.3925 57.7042L63.6307 57.2669L62.9476 56.824L62.2922 56.9716L61.6429 57.4999L61.0153 58.2184L60.4001 58.1504L59.6213 58.9196L58.9599 59.754L58.6786 59.8872L58.354 58.9538L57.5996 58.5933L56.7339 58.6871L56.0845 59.1296L56.6409 59.7339L55.2622 61.0301L53.3766 62.0339L52.0224 61.6312L51.1321 61.8267L50.2418 62.2379L49.8338 62.7424L49.6266 64.0909L49.1165 64.912L48.5167 65.5348L48.0222 66.3048L47.8058 68.285L47.7623 68.4435L47.6976 69.0458L47.5213 69.3934L47.2711 69.6818L46.0654 71.5634L45.2093 71.6399L44.8013 71.8346L44.6283 72.2329L44.3439 72.5125L43.7195 72.7668L43.0951 73.2411L42.8107 74.1499L43.1354 76.499L43.0983 77.5981L42.5267 78.2378V78.6658L44.0446 78.511L44.3938 78.6658L44.6782 79.5079L44.4493 80.0961L43.9549 80.4453L43.4604 80.5551L43.0155 80.4115L42.1251 79.7613L41.6335 79.6093L41.1789 79.7444L40.4185 80.3692L39.9362 80.5551V81.0701L41.7478 80.5551L42.2917 80.7325L43.0891 81.3629L43.46 81.5009L46.1402 80.3274L46.6998 80.5555L46.8048 81.062L46.6998 82.3788V82.9609L47.2719 83.8774L47.5286 84.538L46.9662 85.5522L46.5767 86.0382L46.0666 86.2599L45.5287 86.344L45.1948 86.5628L45.2101 86.8549L45.686 87.1639L44.9164 87.1808L43.8591 86.1979L42.9286 84.9339L42.5267 84.116L42.1803 83.0868L41.327 82.2573L40.2604 81.7033L39.2864 81.5009L38.6126 81.1381L37.8087 80.2598L37.0604 79.1901L36.566 78.2382L36.1424 75.7411L35.9014 75.3576L35.3852 75.177L34.3155 74.4605L33.6851 74.4098L34.2322 76.9645L34.4269 78.4607L34.3344 79.3985L33.7687 79.4942L33.4811 78.0382L33.4006 74.8415L33.8456 71.9798L34.6989 69.8416L41.5124 58.6545L43.559 56.5134L46.6998 51.5006L47.9056 50.3476L49.2658 50.3733L52.4312 51.5006L54.2086 51.6116L57.6431 50.8203L59.1703 50.0289L60.9939 47.9892L61.6743 47.6758L71.1772 49.0722L74.6303 48.6562L78.0708 47.3681L81.326 45.1549L84.1916 41.9344L92.365 26.6977L93.8089 24.5329L96.4271 21.5892L97.7378 19.0486L98.2419 18.6913L99.1475 17.3536L100.987 16.9815L104.493 17.241L107.909 16.6556L111.022 15.2592L113.72 13.2669L118.351 8.43559L120.88 6.52502L121.907 6.12552L123.044 6L124.144 6.2607L125.053 7.00779L122.982 7.79833L121.01 9.71695L117.894 14.572L116.753 18.8269L117.814 22.0184L119.737 24.9472L121.165 28.3898L120.058 31.492L120.077 35.1635L120.88 42.3653L120.231 43.4161L118.289 44.8604L117.374 46.0018L116.033 48.8353L115.427 50.7378L114.991 53.7483L114.048 57.1072L113.59 58.2176L113.269 58.7028L112.96 58.9751L112.545 59.1027L110.752 59.0773L110.202 59.2193L109.509 59.4293L106.328 57.2661L103.973 54.7062L102.405 54.0609L101.138 52.7526L100.198 52.4537L99.4316 52.889L98.3558 54.6575L97.626 54.8394L98.3308 54.9275L99.1314 53.8871L99.7993 53.4092L100.476 53.0708L101.262 53.4063L105.008 57.3848L106.251 58.004L107.71 59.3436L108.545 59.6474L111.612 59.7238L112.32 60.1237L111.253 61.4594L111.022 62.0291L110.839 62.95L110.632 64.8477L110.502 65.3574L110.778 66.4951L111.192 70.0411L111.356 72.8315L111.624 74.3048L112.558 77.2429L112.88 77.7051L113.251 78.1107L113.34 78.5669L112.818 79.1752L112.509 79.1977L111.615 78.7781L111.136 78.6626H109.427L108.83 78.9302L108.147 79.606L107.507 78.9217L106.789 78.381L105.967 78.2205L105.009 78.6626L104.162 79.3441L103.806 79.4878L103.194 79.606L102.619 79.8905L101.448 80.856L100.057 81.3625L98.3349 82.662L93.03 83.4296V83.9019L94.7551 84.2109L100.459 82.4423L101.729 81.6462L102.286 81.4969L102.412 81.3477L102.434 81.0242L102.508 80.7007L102.789 80.5515L103.098 80.6331L103.605 80.9876L103.843 81.0664L104.251 80.9651L104.718 80.6863L105.105 80.298L105.268 79.8446L105.522 78.9097L106.122 78.7688L107.368 79.1744L107.272 79.4278L107.08 80.0812L107.742 80.2107L109.594 80.5712L111.173 80.4754L112.19 79.845L113.099 79.5014L113.804 81.0242L113.99 83.3109L113.331 85.2726L110.772 87.2496L108.886 89.3935L108.546 89.5532L108.277 91.7933L108.147 92.4209L108.434 93.2026L108.258 94.191L107.829 95.1035L107.368 95.6631L108.537 95.6015L108.972 95.2378L108.926 92.6309L109.047 90.7392L109.43 89.8223L111.022 88.6106L112.28 86.9096L112.951 86.4546L113.733 86.9599L113.869 87.398L114.073 88.8769L114.11 89.3174L114.277 89.5447L115.402 90.4926L118.252 92.1296L121.353 92.4965L130.377 91.0647L131.638 91.2103L132.881 91.9055L133.447 92.5556L134.671 94.7233L137.026 97.1154V97.5431L136.145 98.4153L135.672 99.9968L135.483 101.823L135.449 103.442L135.032 104.965L131.536 109.97L129.764 111.198L129.096 112.132L128.892 113.039L128.991 115.162L128.46 117.238L127.26 117.488L125.937 116.511L125.053 114.929L126.03 114.762L126.431 114.393L126.629 113.529L126.524 112.617L126.141 112.339L125.647 112.25L125.192 111.9L124.28 111.571L123.337 112.7L122.48 114.19L121.263 115.623L121.528 117.211L122.029 118.948L122.196 120.096L121.825 120.573L121.22 120.869L120.573 120.944L120.1 120.769L119.717 120.204L119.34 118.898L119.062 118.232L119.364 117.907L120.007 117.438L120.36 117.299L120.088 116.539L119.754 116.175L118.183 115.701L117.837 115.767L116.99 116.325L115.927 116.534L115.271 116.001L114.693 115.045L113.874 113.995L114.721 113.909L115.991 112.872L116.706 112.6L117.243 113L117.902 113.712L118.551 113.976L119.062 113.022L118.419 111.933L118.462 111.081L119.575 108.819L119.062 108.827L118.514 108.604L118.014 108.198L117.633 107.674L117.216 107.39L116.233 107.852L115.711 107.417L115.569 108.334L115.361 108.905L115.028 109.202L114.499 109.286L114.221 109.653L113.201 111.899L112.273 113.1L110.221 114.8L109.299 116.092L108.768 117.69L109.021 118.689L109.649 119.621L110.242 121.02L110.492 122.743L110.335 124.056L109.868 125.246L109.182 126.598L110.094 126.15L110.761 126.067L110.944 126.549L109.991 128.691L109.899 129.558L109.961 131.273L109.927 132.457L109.871 132.978L109.723 133.549L108.811 134.748L108.665 135.228L108.48 135.225L108.069 135.495L107.627 135.914L107.367 136.319L107.555 136.493L107.831 137.159L107.976 137.876L107.642 138.366L107.518 138.696L107.32 139.029L106.962 139.177L106.495 139.054L106.14 138.729L105.549 137.79L105.379 137.353L105.267 136.851L105.104 136.35L104.751 135.904L104.269 135.733L100.578 135.904L100.086 136.075L99.78 136.477L99.5418 136.94L99.2791 137.287L98.293 137.684L96.2899 137.563L95.3654 137.791L96.3205 138.856L101.755 140.062L102.138 140.364L102.002 141.077L101.375 142.454L101.059 143.633L101.152 144.153L101.68 144.276L102.673 144.252V144.719L101.114 145.611L100.66 146.369L101.093 147.48L100.95 147.595L100.598 147.982L99.7043 147.422L95.5312 148.648L93.6298 149.677L92.5078 149.778L90.18 148.857L88.8383 147.666L88.4919 147.48L84.5597 147.457L83.6694 147.019L83.5487 147.276L83.4775 147.463L83.4373 147.666L83.4095 147.982L84.2009 148.363L86.9338 148.401L87.4282 148.706L89.3943 150.742L89.7994 151.542L90.0746 152.265L90.458 152.791L91.2123 152.996H94.8448L94.2236 153.765L92.2515 155.33L91.1942 156.698L90.6809 157.051L89.7966 157.168L89.4752 157.458L89.4072 158.086L89.3947 158.715L89.2648 159.001L86.8722 159.605L86.0064 160.233L85.481 160.378L85.0236 160.271L84.1703 159.9L83.6694 159.919L83.7684 160.195L83.9293 160.378L83.3789 161.161L81.9725 161.625L81.3324 162.211L82.0002 162.634L82.7143 162.588L84.5847 162.097L84.9311 161.887L85.2959 161.786L87.491 162.981L87.6454 163.736L87.4817 164.652L87.0645 165.454L86.5451 165.81L85.2589 166.072L84.7025 166.366L84.9037 167.11L85.3704 168.123L85.5064 168.653L85.4014 169.404L85.1789 169.984L85.2376 170.481L86.0072 170.974L86.4771 171.411L86.9253 172.031L87.0396 172.686L86.5202 173.213V173.711L86.9096 174.153L88.3161 176.575L88.7828 176.775L89.2342 177.212L89.3951 178.305L89.2527 179.084L88.9835 179.563L88.7333 180.149L88.6158 181.222L88.4118 181.709L87.9235 182.051L87.3236 182.251L86.8042 182.319L84.5722 181.904L84.0589 182.045L83.7434 182.4L83.4932 182.841L83.15 183.269L82.2352 183.848L81.6788 184.081L81.1936 184.173L80.8874 184.46V185.047L81.2028 185.533H81.8582V185.99L80.739 185.953L80.2196 186.085L79.7557 186.488L80.1391 186.774L80.6151 186.888L81.7126 186.898L82.2167 187.142L82.767 187.739L83.6698 189.165L82.687 190.464L82.0376 191.08L81.3328 191.468L79.5984 191.822L78.9121 192.34L79.2367 193.278L79.7066 193.292L81.8582 192.418L82.8258 192.483L83.1504 192.418L83.4288 192.202L83.6948 191.884L84.0102 191.595L84.4431 191.469L85.2654 191.819L86.7958 193.521L87.5839 194.184L89.6707 194.75L90.1808 195.13L90.4713 196.094L91.3121 201.113L91.4047 201.412L91.3427 201.613L90.9778 201.903L90.4121 201.92L89.8775 201.597L89.4385 201.535L89.1356 202.355L89.6115 202.513L90.0629 202.798L90.4403 203.19L90.6938 203.668L90.839 204.224L90.913 204.99L90.7493 205.666L90.1897 205.961L89.7475 205.677L89.2064 204.442L88.8757 204.157L87.2962 204.275L86.8046 204.157L86.0905 203.733L86.1432 203.47L86.4522 203.217L86.5202 202.806L85.8495 201.822L85.5993 201.228L85.8713 200.959L86.8851 200.564L86.6811 199.806L85.7755 199.281L84.7029 199.609L84.4929 200.002L83.9921 201.347L83.5656 202.08L83.3274 202.583L83.1512 202.806L82.8636 202.9L82.2485 202.809L81.9825 203.032L81.3332 203.797L79.7505 205.15L79.2375 205.961L78.9873 207.351L79.0336 207.354L79.0114 207.371L78.4502 207.562L77.8061 207.487L77.0405 206.761L76.3534 206.918L75.9374 207.293L75.3955 207.443L75.0266 207.828L74.4573 207.933L71.6854 207.923L71.0139 207.651L70.7351 206.868L70.6225 205.949L70.4499 205.284L69.8138 204.718L61.7575 202.808L58.7736 201.579L55.7386 201.053L54.8515 201.19L52.2642 202.166L50.8625 202.105L49.5293 201.687ZM170.496 212.524L170.063 213.009L169.674 213.169L169.337 213.394L169.043 214.098L170.543 214.767L170.398 216.186L169.186 217.573L167.492 218.134L161.581 216.83L159.664 217.277L157.847 218.134L156.409 219.475L155.553 219.328L152.016 217.215L149.698 215.178L145.522 212.502L143.639 212.085L141.605 211.129L139.549 210.633L138.742 209.91L138.359 208.913L138.606 207.8L139.558 207.24L140.718 207.428L141.797 207.342L142.499 205.963L141.883 205.732L141.367 205.329L139.348 202.799L139.104 202.356V201.219L139.62 200.17L141.2 198.257L141.738 198.524L147.192 197.393L148.116 197.834L149.918 199.298L150.586 199.611L151.263 200.178L152.404 202.692L153.309 203.258L154.222 203.468L160.982 207.309L160.617 206.161L160.179 205.447L160.148 204.878L160.982 204.158H162.021L162.942 203.729L163.32 203.67L162.977 202.952L162.884 202.128L162.943 201.292L163.06 200.55L165.96 203.202L166.195 204.159L167.095 205.329L167.666 205.78L168.297 205.963L167.914 206.328L167.753 206.414L168.309 207.589L170.213 209.176L170.628 209.808L170.73 210.885L170.888 211.37V211.756L170.496 212.524ZM117.504 201.456L118.128 202.066L118.852 202.521L119.365 203.122L119.346 204.159L119.705 204.42L120.101 204.613L117.121 205.306L116.304 206.207L115.835 206.414L114.969 206.014L108.434 198.842L107.815 197.354L107.59 196.32L108.146 196.942L111.37 198.751L112.319 199.611L113.213 201.053L113.683 201.66L114.239 201.905L114.814 201.902L115.269 201.744L115.439 201.214L115.173 200.101L115.714 200.889L116.175 202.864L116.586 203.259L117.374 203.267L117.912 203.128L118.014 202.601L117.504 201.456ZM192.222 192.827L195.549 193.52L196.797 194.671L197.409 196.942L197.335 197.663L196.989 198.062L196.364 198.226L195.474 198.258L190.986 197.273L189.61 197.475L188.303 198.08L187.013 199.159L184.992 201.929L184.269 202.356L183.165 202.171L180.744 200.961V200.549H181.282L181.112 199.874L181.273 199.352L181.625 198.981L182.04 198.744L181.848 198.548L181.487 198.031L181.283 197.845L182.127 196.887L182.621 196.639L183.1 196.941L183.379 196.448L183.1 195.543L183.713 195.6L184.631 196.241L185.196 196.448L185.576 196.375L186.813 195.858L187.274 195.543L187.07 194.888L187.061 194.355L187.228 193.959L187.552 193.732V193.279L186.313 192.389L185.976 191.922L185.781 191.259L185.911 190.802L186.328 190.568H187.015L187.84 192.041L189.114 192.623L192.222 192.827ZM100.835 196.449L101.386 197.491L102.876 202.05L102.851 202.698L102.319 202.84L101.238 202.808L100.672 203.106L99.93 203.695L99.1882 204.116L98.641 203.912L98.0166 203.364L96.267 202.811L95.6269 202.356V201.905L96.6379 201.397L97.8312 201.918L99.0305 202.768L100.082 203.259V202.808L98.2641 201.203L96.5389 200.585L96.1463 200.55L95.7661 200.695L95.219 201.241L94.848 201.456L93.3643 201.373L92.0813 200.333L91.3334 198.598L91.4541 196.449H91.216V196.037L92.0568 196.627L92.9596 197.664L93.8467 198.439L94.6103 198.259L94.4493 198.025L94.1991 197.573L94.0507 197.136L94.1991 196.943L94.4063 196.797L94.1436 196.474L92.5669 195.348L92.3042 194.82L92.7709 194.187V193.734L89.7878 194.017L89.2684 193.96L88.8914 193.669L88.4308 193.601L88.0256 193.434L87.8217 192.828L87.9576 192.534L88.675 191.994L88.8789 191.471L88.1801 191.503L87.5493 191.746L86.9374 191.857L86.2881 191.471V190.983L89.6389 189.379L90.9806 189.168L92.5573 189.476L94.8203 192.172L96.026 192.828L97.7077 193.095L98.9194 193.833L99.893 194.979L100.835 196.449ZM132.881 191.923L133.146 190.051L134.42 186.768L135.892 184.234L136.745 184.629L134.931 192.827L134.207 195.002L132.226 198.982L128.553 211.177L128.182 211.989L127.659 212.27L126.76 212.302L126.305 211.676L125.338 207.801L124.923 207.079L124.413 206.497L123.235 205.515L124.156 205.451L124.747 205.193L125.226 204.637L125.826 203.67L126.178 202.564L126.401 202.247L126.759 202.583L126.951 202.687L127.922 202.357L127.835 201.704L127.668 200.962L127.334 201.247L127.006 201.341L126.685 201.247L126.345 200.962L126.88 199.372L127.686 198.194L129.807 195.719L130.722 195.056L132.881 191.923ZM42.5258 171.852L41.586 172.232L40.5843 171.177L39.7125 169.54L38.5192 166.368L38.2658 164.922L38.6492 163.968L39.9354 163.624L40.0774 165.614L40.7082 165.96L41.481 165.827L42.0314 166.368L42.0189 167.153L41.5305 168.648L41.6327 169.317L41.9204 170.052L42.1863 171.3L42.5258 171.852ZM125.712 190.569H124.008L123.375 190.682L122.667 191.017L122.011 191.524L121.538 192.172L120.849 192.859L120.036 192.754L118.543 191.924L116.002 191.719L115.173 191.47L114.805 191.217L114.509 190.917L114.175 190.671L113.733 190.569L112.783 190.66L112.283 190.609L109.299 188.714L108.199 188.616L107.909 189.121L107.887 190.568L107.312 190.131L106.419 189.083L105.788 188.713L105.009 188.697L103.575 189.062L102.907 188.713L105.819 186.484L106.329 185.535L105.671 184.591L105.195 183.503L104.694 182.629L103.974 182.321L103.402 182.485L102.969 182.729L102.524 182.897L101.897 182.816L101.034 181.93L100.54 181.727L100.082 182.32L100.194 183.36L101.51 185.38L101.378 186.489L101.189 186.573L99.8532 186.354L99.7542 186.165L99.8097 185.894L99.8005 185.535L99.9087 185.583L100.014 185.316L99.9767 184.753L99.4263 183.279L99.3398 182.567L99.4263 181.866L99.6705 181.224L99.6243 180.696L99.0401 180.341L97.5162 179.956L97.037 179.652L96.6105 179.278L96.4283 178.953L96.3478 178.589L95.9954 177.988L95.9089 177.586L95.9954 177.179L96.3478 176.577L96.4283 176.203L96.3478 175.47L95.9954 174.3L95.9089 173.922L96.0264 171.623L95.637 171.325L95.0435 171.275L93.94 171.395L93.4359 171.199L92.898 170.72L91.9735 169.523L92.6132 169.284L93.3241 169.197L93.9485 168.947L94.3286 168.199L92.2543 167.284L92.5665 167.349L93.5494 167.284L93.1567 166.499L92.4643 166.074L90.9557 165.87L90.4238 165.649L89.1376 164.044V163.624L90.1547 164.087L91.2272 165.025L92.2845 165.715L93.2677 165.456L89.515 162.108L88.1053 161.797L88.3958 161.101L88.7607 160.822L89.1871 160.675L89.6819 160.38L91.1009 158.545L93.1507 158.132L93.8463 158.258L93.9762 158.613L93.9947 159.176L94.3286 159.921L96.1555 160.924L98.1341 160.216L101.897 157.629L106.809 155.984L108.481 154.747L109.418 154.419L110.438 154.345L110.741 154.419L110.765 154.621L111.004 155.576L111.022 155.792L111.557 155.593L111.69 155.084L111.563 153.707L112.088 153.565L113.257 154.112L115.878 155.937L116.472 156.672L116.942 157.498L117.276 157.938L117.634 158.132L118.33 158.217L118.961 158.455L120.11 159.263L119.489 159.012H118.896L118.457 159.361L118.284 160.151L118.423 160.446L118.983 160.896L119.063 161.297L118.865 161.857L118.553 162.01L118.173 162.034L117.765 162.215L116.343 164.268L116.967 165.386L118.315 165.323L119.063 163.835L119.49 163.949L121.938 162.67L123.376 162.215L123.542 162.005L123.468 161.547L123.283 161.088L123.107 160.881L122.767 160.79L122.402 160.561L122.096 160.253L121.938 159.922L122.049 159.332L122.523 159.554L123.027 160.073L123.237 160.381L123.719 159.636L123.596 158.579L123.228 157.399L122.978 156.253L123.163 156.562L123.75 157.172L123.766 156.04L123.516 154.371L123.522 153.919L124.245 153.878L125.358 155.137L127.151 158.134L127.225 158.562L127.262 159.161L127.346 159.693L127.54 159.923L127.633 160.07L128.443 160.881L128.684 161.806L128.603 162.347L128.251 162.723L127.144 163.443L125.379 164.209L122.754 163.964L122.105 164.105L121.653 164.503L121.449 165.356L121.802 165.781L122.414 165.806L122.976 165.457L122.8 165.111L122.76 164.898L123.041 164.212L123.792 164.4L126.345 164.999L126.914 165.511L130.664 170.977L130.908 171.564L131.87 174.447L132.096 175.536H131.814L131.366 174.83L130.674 174.374L130.043 174.558L129.765 175.748L129.981 176.564L130.995 178.192L131.298 179.182L131.369 180.615L131.274 181.931L131.02 183.055L130.442 184.416L130.331 184.911L130.284 186.241L130.161 186.59L129.227 187.847L128.869 188.658L128.615 189.414L128.272 190.067L127.669 190.57L127.206 190.683L125.712 190.569ZM199.765 148.859L201.972 154.419L202 154.706L200.665 156.252L200.087 156.429L199.385 156.856L198.745 157.389L198.331 157.881L197.508 158.119L196.692 156.853L196.148 155.01L196.135 153.5L196.547 152.646L197.038 152.076L197.527 151.632L197.929 151.158L198.337 150.32L198.979 148.642L199.486 147.984L199.644 148.387L199.703 148.568L199.765 148.859ZM121.652 136.826L122.172 135.975L122.475 134.914L122.444 133.761L121.937 132.625L121.241 132.12L120.472 131.789L119.98 131.068L120.101 129.378L120.49 128.491L121.065 127.894L121.553 128.044L121.835 130.891L122.444 132.067L123.3 132.832L124.268 133.13L123.931 133.8L123.779 134.52L123.816 135.234L124.008 135.907L124.663 136.838L125.118 136.568L125.443 135.846L125.712 135.444L125.826 135.896L125.285 136.888L124.268 138.215L124.079 139.437L124.119 141.693L123.748 142.875L122.518 144.029L121.186 143.66L120.165 142.083L119.835 139.602L120.051 138.231L120.447 137.664L120.997 137.378L121.652 136.826ZM177.909 201.905L178.614 201.817L179.35 201.585L180.039 201.569L180.624 202.131L181.69 203.759L182.84 205.104V205.515L179.48 208.275L178.927 208.91L177.44 211.758L177.239 212.302L176.859 212.578L175.839 213.814L175.437 214.097L174.883 215.012L174.865 217.098L175.291 220.82L175.199 223.17L174.441 223.248L173.65 222.24L173.477 221.312L172.933 220.565L171.69 218.108L171.405 217.277L171.461 215.914L171.918 214.858L172.963 213.2L172.194 213.034L171.659 212.67L171.526 211.998L171.924 210.913L171.492 210.656L171.257 210.319L170.886 209.563L169.124 207.718L168.984 207.415L168.814 206.866L168.734 206.337L168.78 205.985L168.771 205.631L168.53 205.105L167.868 204.34L167.281 203.873L166.867 203.22L166.712 201.906L166.703 200.696L166.576 199.763L166.193 199.112L165.414 198.746V198.259L166.87 197.099L167.231 196.943L167.775 197.144L168.511 198.052L168.928 198.259L169.34 198.001L170.205 197.072L170.366 197.169L170.614 197.535L171.152 197.233L171.924 196.45V196.038L171.526 195.52L170.812 193.499L170.367 192.828L167.816 191.611L167.093 191.471L166.889 191.33L166.385 190.707L166.073 190.57L163.671 190.429L162.953 190.035L162.335 189.451L161.785 188.714L163.825 189.151L167.837 191.022L169.822 191.47L168.981 189.931L166.628 188.162L165.648 186.49L168.928 185.884L169.142 185.617L169.043 185.084L168.224 184.397L166.063 184.559L165.413 183.686L165.976 183.085L166.297 182.305L166.235 181.542L165.648 180.997L164.791 181.013L164.151 181.593L163.604 182.33L163.057 182.817L162.556 182.774L161.156 182.129L158.299 181.411L157.61 180.997L157.09 181.273L154.463 180.092L153.975 180.211L152.936 180.807L152.401 180.997H149.783V181.452L150.562 181.907L149.248 181.858L148.302 181.511L147.709 180.566L147.449 178.726L148.002 179.135L148.562 179.16L149.026 178.731L149.264 177.815L148.874 178.113L148.469 178.257L147.579 178.308L147.458 177.945L147.563 176.32L147.319 175.954L146.636 175.538L144.546 173.608L144.194 172.988L144.54 172.825L145.091 172.76L145.539 172.532L145.61 171.852L145.313 171.521L144.769 171.363L144.185 171.333L143.796 171.396L143.533 171.758L143.36 172.32L143.082 172.76H142.497L142.259 172.461L141.721 170.977V170.483L142.742 170.586L143.285 170.534L143.666 170.254L144 169.816L144.435 169.457L144.911 169.204L145.35 169.114L146.151 168.752L146.525 167.952L146.485 167.151L146.021 166.786L146.169 166.108L145.851 164.601L145.091 162.215L144.615 161.38L144.13 160.815L143.539 160.493L142.757 160.381L142.08 160.87L141.647 161.001L141.461 160.63L141.533 159.726L141.752 159.238L142.117 159.046L142.627 159.005L143.629 158.628L144.028 157.661L143.923 156.398L143.407 155.11L141.728 152.981L139.879 151.87L135.727 150.746V150.242L141.721 150.746L141.088 149.614L138.716 148.581L137.804 147.986L137.412 147.33L137.183 146.819L136.877 146.419L136.246 146.1L134.264 145.952L133.658 145.598V145.178L139.643 146.1L140.882 145.886L143.257 144.937L144.57 144.723V145.178L144.15 145.118L143.748 145.145L143.359 145.293L143.016 145.598L143.612 146.776L144.595 147.698L145.705 148.038L146.669 147.484L145.089 146.1L145.609 145.598L145.964 145.963L146.598 146.123L147.968 146.1L148.583 145.853L149.875 144.922L151.176 144.626L151.767 144.296L152.215 143.667L152.401 142.664L152.441 142.136L152.62 141.204L152.657 140.775L152.521 140.239L151.86 139.268L151.622 138.72L152.589 139.367L153.523 139.527L154.407 139.15L155.23 138.217L156.528 138.503L157.579 136.664L157.78 133.985L156.522 131.742L155.421 131.278L152.985 131.099L149.956 129.944L149.096 129.19L148.744 127.994L153.604 130.342L154.605 130.102L160.46 131.03L161.156 131.692L162.732 131.602L165.413 130.773L166.795 129.917L167.573 129.763L168.009 130.351L167.842 131.03L166.776 132.322L166.451 133.133L166.896 133.842L166.649 134.291L166.037 134.39L165.413 134.06L165.493 133.811L165.648 133.133L164.439 133.2L163.947 133.467L163.576 134.06L165.459 137.384L166.179 139.236L165.648 140.571L165.069 140.672L163.885 140.348L163.317 140.571L162.621 141.577L162.176 141.949L161.474 141.957V142.46L162.102 142.664L163.975 142.46L164.485 142.229L165.085 141.759L165.753 141.404L166.452 141.492L166.705 142.031L167.101 143.142L167.398 144.23L167.361 144.724L164.306 145.279L163.632 145.559L163.354 145.982L163.837 146.522L164.384 146.605L166.09 146.473L166.452 146.312L166.74 145.971L167.373 146.622L168.295 147.988L168.567 148.877L168.542 149.209L168.32 149.617L168.011 150.749L168.688 150.111L169.179 149.472L170.765 145.98L170.846 145.895L170.886 145.851L170.803 145.368L170.45 144.511L170.367 144.259L170.488 143.484L170.781 142.511L171.406 140.994L171.971 140.391L173.316 140.003L173.996 139.607L174.615 137.697L173.836 135.487L172.939 133.499L173.218 132.208L173.898 132.266L175.236 133.695L175.944 134.062L176.309 134.357L176.297 135.038L176.142 135.799L176.074 136.328L176.238 137.185L176.383 137.493L176.563 137.7L176.85 138.22L177.564 140.193L178.238 142.981L178.35 145.594L177.37 147.026L175.997 146.527L175.338 146.62L175.06 147.734L174.788 148.508L173.453 149.807L172.965 150.75L173.734 150.92L174.825 150.416L175.701 149.486L175.815 148.409L176.421 148.154L177.045 148.354L177.589 148.927L177.91 149.786L176.73 149.38L176.572 149.536L176.81 150.153L177.388 150.621L178.668 151.164L179.002 149.753L179.874 147.611L179.988 146.104L178.408 138.724V136.328L178.269 135.361L177.37 131.745L176.779 130.801L176.09 130.439L175.264 130.489L172.362 131.682L171.267 131.88L170.627 131.281L171.27 129.616L173.236 127.925L176.85 125.677L182.659 120.71L185.688 119.005L188.854 119.13L192.137 121.028H194.842L195.574 121.428L196.904 122.638L198.032 123.123L200.001 124.789L199.488 125.86L197.93 127.997L197.373 129.144L196.341 131.845L195.853 132.631V133.136L196.901 134.666L197.439 135.708L197.67 136.585L197.843 137.857L198.258 139.344L198.777 140.675L199.253 141.495L199.092 142.155L199.012 143.056L198.968 144.49L198.752 145.655L198.708 146.105L198.758 146.429L198.894 146.774L199.252 147.488L198.454 148.533L196.927 151.51L195.493 152.509L195.246 153.333L194.881 154.135L194.04 154.425L193.415 154.201L192.967 153.828L192.47 153.53L191.706 153.505L188.961 155.106L188.228 155.875L185.811 158.408L185.805 158.416L183.901 162.351L184.918 165.876L186.763 167.526L187.413 167.746L189.75 167.913L190.386 168.204L192.031 169.605L192.89 170.639L193.265 171.629L193.329 172.776L193.502 173.743L194.04 175.54L193.478 176.246L193.265 176.455L191.283 177.871L183.319 179.745L182.72 180.4L181.746 181.023L180.976 182.15L180.519 183.504L180.744 184.635L180.457 185.208L180.135 185.451L179.798 185.397L179.442 185.089L179.724 183.661L179.288 182.757L178.518 182.508L177.773 183.049L177.433 183.374L177.136 183.488L176.932 183.72L176.849 184.407L177.056 184.68L178.147 185.541L181.334 185.819L182.781 186.311L183.099 187.851L182.886 188.505L182.645 188.781L182.367 188.921L182.039 189.172L181.254 189.607L180.877 189.958L181.152 190.12L182.58 193.285L182.54 194.544L182.033 195.223L181.254 195.497L180.364 195.549L179.776 195.783L178.5 196.769L177.628 196.947L176.302 196.389L174.243 194.43L172.963 194.19L172.939 194.506L173.001 194.581L173.103 194.579L173.217 194.643L173.01 194.773L172.896 194.927L172.754 195.061L172.469 195.137L172.636 196.398L172.364 197.152L172.008 197.803L171.925 198.751L172.203 199.49L172.704 199.929L173.279 199.999L173.761 199.617L173.662 199.375L173.477 198.751L173.808 198.707L174.775 198.263L175.084 198.632L175.625 199.845L175.699 200.106L176.052 200.37L177.285 201.58L177.909 201.905ZM157.846 80.0832L157.744 79.067L158.174 78.7037L161.414 78.3573L163.058 77.7176V78.2358L162.897 78.247L162.774 78.34L162.539 78.6638L161.865 78.9849L161.342 79.6889L160.897 80.4714L160.461 81.068L159.821 81.3296L159.042 81.2451L158.316 80.8259L157.846 80.0832ZM55.8001 76.7339L55.2992 77.3764L53.7258 78.6638L53.5311 79.8579L50.5017 80.6967L49.4384 81.2821L49.061 81.0793L48.0472 78.8046L47.6328 78.2358L46.699 77.2441L45.787 76.7762L45.546 76.7339L44.368 77.1878L43.9786 77.123L44.1085 76.3027L44.288 75.9559L44.5724 75.6598L44.9124 75.4397L45.2708 75.3552L45.4438 75.0507L45.3819 74.382L45.2459 73.7247L45.1409 73.4595L46.1949 72.6634L48.8844 72.2824L49.8334 71.0481L49.3575 71.096L48.8844 71.0453L48.4362 70.8928L48.0218 70.6188L48.235 69.9578L48.9954 68.9291L49.314 68.1997L49.1905 68.2564L49.1101 67.6852L49.0606 66.5422L49.1813 66.2988L49.475 66.2791L49.8121 66.3274L50.072 66.3048L51.1631 65.8917L53.3919 65.5179L54.5047 64.8839L55.3362 65.1756L56.0998 64.173L57.3796 61.5121L58.2514 62.079L58.8078 61.2993L59.2342 60.3889L59.7134 60.559L59.4937 61.1207L59.0484 61.988L58.9369 62.5038L59.011 62.8043L59.3911 63.7731L59.4776 64.3621L59.3911 64.5093L58.9365 66.7796L58.6304 67.6453L58.4356 67.9591L58.1572 68.1997L58.148 67.3738L57.9565 66.8419L57.666 66.5136L57.3784 66.3044L56.4788 67.0459L56.3211 67.2977L56.2004 68.0303L56.2994 68.4769L56.4724 68.7992L56.6023 69.1552L56.9113 71.4693L57.2452 72.181L57.8974 72.4691L57.6564 72.8162L57.4154 72.9743L57.1462 73.011L56.8401 72.9913L57.1213 73.1944L57.378 73.4599L56.8743 74.2332L56.3022 75.8042L55.8001 76.7339ZM143.796 35.6447L144.844 35.619L145.283 35.7879L145.611 36.1259L145.883 36.9788L145.853 37.7214L145.573 38.3217L144.728 38.1463L143.829 37.8244L140.917 38.5293L141.529 39.0527L141.965 40.0987L141.849 41.2372L140.94 42.2498L140.421 43.1031L140.103 44.0494L139.484 44.8069L138.309 45.0877L137.551 44.469L136.558 42.5749L135.218 42.3194L134.164 41.7594L133.492 41.1077L132.88 40.4044V39.9643L134.15 39.6859L135.397 38.4621L136.36 37.5927L137.889 37.4977L138.771 37.225L139.441 36.4642L142.26 36.4835L143.796 35.6447Z" fill="#B2B2B2"/>
<circle cx="106" cy="120" r="5" fill="#FF5900"/>
</svg>
