<svg width="258" height="35" viewBox="0 0 258 35" fill="none" xmlns="http://www.w3.org/2000/svg">
<path d="M14.52 34.28V24.92H9.28005V34.28H4.88758e-05V7.48H9.28005V17.36H14.52V7.48H23.8V34.28H14.52ZM35.011 20.88C35.011 23.1467 35.2243 24.7867 35.651 25.8C36.1043 26.7867 37.0243 27.28 38.411 27.28C39.8243 27.28 40.7443 26.7867 41.171 25.8C41.5977 24.8133 41.811 23.1733 41.811 20.88C41.811 18.56 41.5977 16.92 41.171 15.96C40.771 14.9733 39.8643 14.48 38.451 14.48C37.0377 14.48 36.1043 14.9867 35.651 16C35.2243 16.9867 35.011 18.6133 35.011 20.88ZM51.171 20.88C51.171 25.76 50.1577 29.3067 48.131 31.52C46.1043 33.7067 42.8643 34.8 38.411 34.8C33.9843 34.8 30.7443 33.6933 28.691 31.48C26.6643 29.2667 25.651 25.7333 25.651 20.88C25.651 16 26.6643 12.4667 28.691 10.28C30.7177 8.06666 33.9577 6.96 38.411 6.96C42.8643 6.96 46.1043 8.06666 48.131 10.28C50.1577 12.4667 51.171 16 51.171 20.88ZM39.331 5.76V-3.33786e-06H45.771V5.76H39.331ZM31.051 5.76V-3.33786e-06H37.491V5.76H31.051ZM63.5679 7.48V27.2C63.5679 29.8133 62.9279 31.7333 61.6479 32.96C60.6612 33.9467 58.8745 34.52 56.2879 34.68C55.3012 34.76 54.0079 34.8 52.4079 34.8V27.16C52.7545 27.16 53.0079 27.16 53.1679 27.16C53.3279 27.1333 53.4879 27.0533 53.6479 26.92C53.8345 26.76 53.9545 26.5867 54.0079 26.4C54.0612 26.2133 54.1145 25.88 54.1679 25.4C54.2479 24.6533 54.2879 23.32 54.2879 21.4V7.48H63.5679ZM86.2594 15.2C82.4994 14.8 79.7661 14.6 78.0594 14.6C76.3528 14.6 75.3528 14.6533 75.0594 14.76C74.7928 14.84 74.6594 15.0267 74.6594 15.32C74.6594 15.6133 74.8194 15.84 75.1394 16C75.4594 16.16 76.4594 16.4267 78.1394 16.8C79.8461 17.1733 81.2328 17.5467 82.2994 17.92C83.3928 18.2667 84.3661 18.7733 85.2194 19.44C86.0994 20.08 86.6728 20.88 86.9394 21.84C87.2328 22.7733 87.3794 24.04 87.3794 25.64C87.3794 28.9467 86.4994 31.3067 84.7394 32.72C82.9794 34.1333 80.3261 34.84 76.7794 34.84C75.0728 34.84 73.2728 34.72 71.3794 34.48C69.5128 34.24 68.0728 34 67.0594 33.76L65.4994 33.4L65.8994 26.32C69.9794 26.9067 73.3261 27.2 75.9394 27.2C77.3261 27.2 78.0194 26.8933 78.0194 26.28C78.0194 26.0133 77.8594 25.8267 77.5394 25.72C77.2194 25.5867 76.3528 25.4133 74.9394 25.2C71.2061 24.6133 68.6594 23.7067 67.2994 22.48C65.9661 21.2267 65.2994 19.1867 65.2994 16.36C65.2994 12.76 66.1661 10.2933 67.8994 8.96C69.6328 7.62666 72.2994 6.96 75.8994 6.96C78.4328 6.96 81.4061 7.21333 84.8194 7.72L86.4994 8L86.2594 15.2ZM98.2644 25.36V34.28H88.9844V7.48H98.2644V16.96H99.8644L102.864 7.48H112.064L107.784 20.44L112.464 34.28H103.144L99.9044 25.36H98.2644ZM121.027 20.88C121.027 23.1467 121.24 24.7867 121.667 25.8C122.12 26.7867 123.04 27.28 124.427 27.28C125.84 27.28 126.76 26.7867 127.187 25.8C127.613 24.8133 127.827 23.1733 127.827 20.88C127.827 18.56 127.613 16.92 127.187 15.96C126.787 14.9733 125.88 14.48 124.467 14.48C123.053 14.48 122.12 14.9867 121.667 16C121.24 16.9867 121.027 18.6133 121.027 20.88ZM137.187 20.88C137.187 25.76 136.173 29.3067 134.147 31.52C132.12 33.7067 128.88 34.8 124.427 34.8C120 34.8 116.76 33.6933 114.707 31.48C112.68 29.2667 111.667 25.7333 111.667 20.88C111.667 16 112.68 12.4667 114.707 10.28C116.733 8.06666 119.973 6.96 124.427 6.96C128.88 6.96 132.12 8.06666 134.147 10.28C136.173 12.4667 137.187 16 137.187 20.88ZM157.023 34.28H139.023V7.48H148.303V26.72H157.023V34.28ZM158.594 34.28V7.48H178.674V14.88H167.874V17.16H176.274V24.48H167.874V26.88H178.674V34.28H158.594ZM180.547 34.28V7.48H189.667L195.827 17.64H196.387V7.48H205.667V34.28H196.507L190.427 23.36H189.827V34.28H180.547ZM219.806 34.28H208.086V7.48H219.406C224.019 7.48 227.339 8.52 229.366 10.6C231.393 12.68 232.406 16.0133 232.406 20.6C232.406 25.16 231.433 28.5867 229.486 30.88C227.539 33.1467 224.313 34.28 219.806 34.28ZM223.046 21.04C223.046 18.64 222.793 17.04 222.286 16.24C221.806 15.44 220.713 15.04 219.006 15.04H217.366V26.72H219.006C220.393 26.72 221.419 26.3733 222.086 25.68C222.726 24.9867 223.046 23.44 223.046 21.04ZM243.538 25.36V34.28H234.258V7.48H243.538V16.96H245.138L248.138 7.48H257.338L253.058 20.44L257.738 34.28H248.418L245.178 25.36H243.538Z" fill="#FBFBFB"/>
</svg>
