<svg width="229" height="229" viewBox="0 0 229 229" fill="none" xmlns="http://www.w3.org/2000/svg">
<rect width="229" height="229" rx="5" fill="#FBFBFB"/>
<g clip-path="url(#clip0_242_285)">
<path d="M101.966 95.7254L101.021 96.9837L100.392 97.6129L99.1333 98.3048L98.9442 98.8712C98.9442 98.8712 98.4406 99.3746 98.5038 99.6894C98.567 100.004 98.567 100.57 98.567 100.57C98.567 100.57 97.6858 101.388 97.308 101.64C96.9301 101.891 96.4265 102.458 96.4265 102.458C96.4265 102.458 96.1118 102.835 95.9231 102.961C95.7343 103.087 95.4197 103.464 95.1677 103.842C94.9157 104.22 94.664 104.471 94.5382 104.66C94.4123 104.848 94.0345 105.289 93.8457 105.981C93.657 106.673 93.1533 107.491 93.1533 107.491L93.0272 107.806C93.0904 108.876 93.0901 109.064 93.2162 109.442C93.3423 109.82 93.4682 109.693 93.3421 110.511C93.2162 111.329 93.2162 111.644 93.0904 112.022C92.9645 112.399 92.5867 113.091 92.4611 113.406C92.3356 113.721 92.7128 114.286 92.7128 114.286C92.7128 114.286 92.9019 115.105 92.7758 115.293C92.6499 115.482 92.8387 115.86 92.8387 115.86C92.8387 115.86 93.594 116.3 93.846 116.552C94.098 116.804 94.5385 117.181 94.6014 117.37C94.6643 117.559 95.168 118.44 95.2309 118.628C95.2938 118.817 95.7975 119.509 95.9233 119.698C96.0492 119.887 96.6787 120.579 96.6787 120.579C96.6787 120.579 97.497 121.208 97.686 121.46C97.8751 121.711 98.4414 121.837 98.6299 122.026C98.819 122.214 99.2594 122.151 99.5111 122.34C99.7628 122.53 100.266 122.214 100.518 122.34C100.77 122.467 101.463 122.215 101.652 122.089C101.84 121.963 102.281 121.523 102.596 121.711C102.911 121.9 103.099 121.711 103.351 121.774C103.603 121.837 103.98 121.523 104.232 121.523C104.484 121.523 105.113 121.271 105.302 121.271C105.491 121.271 106.121 120.893 106.373 120.893C106.625 120.893 106.939 120.642 107.254 120.767C107.568 120.893 107.442 120.516 108.009 120.705C108.576 120.893 108.764 120.705 108.953 120.893C109.142 121.082 109.394 120.893 109.583 121.145C109.772 121.396 110.086 121.585 110.149 121.837C110.212 122.089 110.59 122.341 110.59 122.341L110.967 122.403C110.967 122.403 111.471 122.026 111.597 122.278C111.723 122.53 112.289 122.467 112.289 122.467L112.856 123.096L113.045 123.347C113.045 123.347 113.423 124.354 113.359 124.732C113.296 125.109 113.296 125.927 113.108 126.116C112.919 126.305 112.793 127.123 112.793 127.123C112.793 127.123 112.541 127.374 113.108 127.878C113.674 128.381 114.052 128.821 114.241 129.073C114.43 129.325 114.934 130.017 114.996 130.457C115.059 130.898 115.185 131.149 115.437 131.716C115.689 132.282 116.003 132.345 116.066 132.974C116.129 133.604 116.255 133.604 116.192 134.044C116.129 134.484 115.94 134.547 116.129 134.862C116.318 135.176 116.569 135.743 116.507 135.931C116.444 136.12 116.318 136.938 116.318 136.938L116.192 137.316L115.626 138.386L115.248 138.952C115.122 139.392 114.87 139.832 114.933 140.462C114.996 141.091 114.619 141.091 115.122 141.72C115.625 142.349 115.877 143.041 116.192 143.608C116.507 144.174 116.696 144.74 116.758 145.118C116.822 145.495 117.073 145.621 117.199 146.124C117.325 146.628 117.388 146.879 117.388 147.194C117.388 147.509 117.325 148.327 117.451 148.515C117.578 148.704 117.64 149.271 117.703 149.522C117.766 149.774 117.514 149.837 117.892 150.278C118.269 150.718 118.521 150.97 118.773 151.284C119.024 151.599 118.962 151.473 119.151 151.914C119.34 152.354 119.591 152.606 119.654 152.983C119.717 153.36 119.78 154.304 119.969 154.745C120.158 155.185 120.409 155.626 120.409 155.626C120.409 155.626 121.102 156.066 121.354 156.003C121.605 155.94 122.109 155.375 122.487 155.563C122.865 155.752 123.179 155.563 123.494 155.563C123.809 155.563 124.124 155.185 124.438 155.185C124.753 155.185 125.194 154.682 125.446 154.808C125.698 154.934 126.012 154.682 126.327 154.367C126.642 154.053 126.83 153.801 127.397 153.298C127.963 152.794 127.9 152.794 128.278 152.48C128.655 152.165 129.034 151.473 129.474 151.347C129.915 151.221 130.04 150.781 130.166 150.466C130.292 150.152 130.355 149.963 130.544 149.711C130.733 149.459 130.607 149.775 130.922 148.956C131.237 148.138 131.615 147.824 131.929 147.635C132.244 147.446 132.433 147.069 132.622 147.006C132.81 146.942 133.125 147.194 132.999 146.628C132.874 146.062 132.999 145.244 132.874 145.055C132.748 144.867 132.559 145.495 132.622 144.551C132.685 143.607 133.377 142.664 133.377 142.664C133.377 142.664 134.321 141.468 134.636 141.28C134.951 141.091 135.014 140.902 135.455 140.65C135.895 140.399 136.839 139.77 136.839 139.455C136.839 139.14 137.217 138.322 137.217 138.133C137.217 137.944 137.217 137.756 137.092 136.686C136.966 135.616 137.217 135.868 136.84 134.862C136.462 133.855 136.399 132.596 136.147 132.282C135.896 131.967 136.021 131.149 136.021 130.898C136.021 130.646 136.462 130.017 136.651 129.765C136.84 129.513 137.658 128.506 137.658 128.506C137.658 128.506 138.917 127.059 139.358 126.368C139.798 125.675 140.239 125.046 140.553 124.795C140.868 124.543 141.624 123.976 142.064 123.347C142.505 122.718 143.386 121.523 143.449 121.333C143.512 121.145 144.015 120.516 144.015 120.516C144.015 120.516 144.708 119.698 144.834 119.257C144.959 118.817 145.589 116.363 145.463 116.489C145.337 116.614 144.582 116.74 144.33 116.803C144.079 116.866 144.708 117.118 142.882 116.992C141.056 116.867 140.113 117.181 140.113 117.181C139.546 117.055 139.106 117.684 138.917 116.803C138.727 115.922 138.602 115.419 138.224 114.79C137.847 114.161 137.595 113.909 137.029 113.091C136.462 112.273 136.525 112.65 136.021 112.022C135.517 111.393 135.391 111.581 135.077 110.763C134.762 109.945 134.51 110.26 134.133 109.127C133.755 107.994 133.503 107.868 133.314 107.239C133.126 106.61 132.874 106.421 132.748 105.855C132.622 105.289 131.174 102.395 130.985 102.206C130.796 102.017 130.482 101.01 130.545 101.199C130.608 101.388 131.489 102.017 131.489 102.017C131.489 102.017 131.992 101.828 132.181 101.828C132.37 101.828 133.126 102.52 133.126 102.772C133.126 103.023 134.448 104.219 134.762 105.1C135.077 105.981 135.455 106.61 135.518 106.862C135.58 107.113 136.21 108.12 136.462 108.498C136.714 108.876 137.532 109.63 137.658 110.008C137.784 110.386 138.98 111.644 138.98 112.462C138.98 113.28 139.546 114.349 139.609 114.601C139.672 114.853 140.805 115.168 140.805 115.168L142.316 114.79C142.316 114.79 144.582 113.342 144.834 113.342C145.086 113.342 147.1 112.399 147.1 112.399C147.1 112.399 147.918 111.644 148.485 111.204C149.051 110.763 149.681 109.945 149.807 109.567C149.933 109.189 150.184 109.127 150.688 108.56C151.191 107.994 151.884 107.428 151.443 107.05C151.003 106.673 150.751 106.799 150.121 106.17C149.492 105.54 149.555 105.666 149.114 104.848C148.673 104.03 149.177 103.086 148.233 104.03C147.288 104.974 147.666 105.226 146.722 105.415C145.778 105.603 145.4 106.233 144.959 105.603C144.519 104.974 144.079 105.352 143.826 104.408C143.574 103.464 143.386 103.401 143.323 103.024C143.26 102.647 143.323 102.646 142.819 101.702C142.316 100.758 142.693 99.3112 143.008 100.129C143.323 100.947 143.826 101.073 144.645 101.639C145.463 102.205 145.841 102.646 146.596 102.709C147.351 102.772 147.981 102.709 148.107 102.835C148.233 102.96 148.358 102.772 148.673 102.897C148.988 103.023 149.114 102.709 149.24 103.212C149.366 103.715 150.058 103.778 150.373 104.093C150.687 104.407 150.687 104.282 151.506 104.407C152.325 104.533 153.458 104.533 153.458 104.533L154.653 104.47L156.038 104.596C156.038 104.596 157.046 105.162 157.297 105.162C157.549 105.162 157.612 105.854 158.241 106.232C158.871 106.609 158.997 106.672 159.374 107.113C159.752 107.553 159.689 107.742 160.193 108.182C160.696 108.623 161.515 108.12 161.641 107.931C161.766 107.742 162.396 107.428 162.27 107.931C162.145 108.435 162.899 108.245 162.711 109.441C162.522 110.637 162.396 110.322 162.711 111.14C163.026 111.958 164.41 114.475 164.473 115.23C164.537 115.985 164.914 115.733 164.977 116.426C165.04 117.118 165.417 117.369 165.417 117.873C165.417 118.376 165.858 118.502 165.921 118.88C165.984 119.257 166.677 118.942 166.865 118.88C167.054 118.816 167.935 117.999 167.935 117.999C167.935 117.999 168.314 117.873 168.25 117.243C168.187 116.614 168.25 116.74 168.25 115.797C168.25 114.853 167.873 114.853 168.061 113.909C168.25 112.966 168.754 112.399 168.88 111.959C169.006 111.518 169.509 110.763 169.761 110.7C170.012 110.637 171.398 109.945 171.712 109.505C172.027 109.064 172.531 108.561 173.034 108.058C173.538 107.554 174.419 106.925 174.608 107.114C174.797 107.303 174.734 107.24 175.049 107.24C175.364 107.24 175.93 107.492 176.37 107.554C176.811 107.617 177.693 108.687 177.881 109.253C178.07 109.82 177.944 109.694 178.637 110.512C179.329 111.329 179.959 110.826 179.959 111.833C179.959 112.84 179.959 112.777 180.274 113.154C180.589 113.532 180.966 112.462 181.343 112.588C181.721 112.714 181.784 112.462 182.098 113.469C182.413 114.476 182.602 114.476 182.665 115.483C182.728 116.489 182.602 115.546 182.602 116.363C182.602 117.181 182.539 117.244 182.665 117.999C182.792 118.754 183.231 119.006 183.169 119.132C183.169 119.132 183.546 118.063 183.42 117.307C183.294 116.552 183.42 115.483 183.735 115.168C184.05 114.854 184.365 114.539 184.616 115.357C184.868 116.175 184.994 115.546 185.56 116.49C186.127 117.434 186.631 117.244 186.694 117.685C186.757 118.125 187.072 118.189 187.512 118.566C187.953 118.943 188.33 118.503 188.834 118.125C189.338 117.748 190.722 116.363 190.786 115.797C190.848 115.231 191.415 115.357 190.407 113.91C189.4 112.463 189.4 111.959 188.33 111.078C187.261 110.198 186.631 110.135 187.45 109.002C188.268 107.869 188.646 107.114 189.149 107.429C189.652 107.744 190.533 107.68 190.533 108.939C190.533 110.198 190.282 111.582 191.163 110.072C192.044 108.562 192.485 107.681 192.233 107.933C191.981 108.185 192.799 107.429 192.799 107.429C192.799 107.429 192.863 106.863 193.933 106.612C195.003 106.36 195.317 106.234 195.695 106.045C196.073 105.856 197.143 104.598 197.332 104.032C197.521 103.465 198.024 102.459 197.898 102.018C197.773 101.578 197.143 99.4386 197.017 99.5013C196.891 99.5644 196.954 99.5644 196.136 98.6836C195.317 97.8027 194.751 97.1735 194.625 96.7958C194.499 96.4182 194.185 96.3553 194.562 95.8521C194.94 95.3489 195.129 95.4118 195.192 94.9712C195.255 94.5307 195.758 94.1533 194.814 94.468C193.87 94.7828 194.562 94.5941 193.744 94.5312C192.926 94.4683 190.786 94.9715 191.856 93.6504C192.926 92.3292 193.24 91.5113 193.429 91.5113C193.618 91.5113 194.562 90.4415 194.625 91.4481C194.688 92.4548 195.066 92.2029 195.129 92.8321C195.192 93.4614 196.451 92.1403 196.451 92.1403C196.451 92.1403 196.891 92.2661 197.206 92.5805C197.52 92.895 197.521 93.902 197.521 93.902C197.521 93.902 197.269 93.5872 197.961 94.0907C198.654 94.5941 199.409 94.3422 199.409 95.4121C199.409 96.4819 199.409 96.5448 199.85 96.7964C200.29 97.048 200.731 96.9225 201.109 96.6077C201.487 96.2929 202.116 95.1605 202.116 95.1605C202.116 95.1605 202.179 94.7199 201.172 94.0907C200.165 93.4614 199.535 93.0214 199.158 92.7066C198.781 92.3919 198.906 91.4484 199.283 91.0704C199.66 90.6925 199.85 90.5041 199.724 90.0009C199.598 89.4977 199.913 89.1198 200.857 89.1827C201.801 89.2456 201.99 89.1201 201.99 89.1201C201.99 89.1201 202.179 89.2456 202.179 88.8682C202.179 88.4908 203.375 86.7288 203.06 86.7288C202.745 86.7288 203.124 86.2885 202.934 85.5964C202.744 84.9042 203.564 83.8347 202.871 83.3312C202.179 82.8278 201.99 82.5759 201.549 81.8211C201.109 81.0663 201.171 80.9403 199.535 80.7513C197.899 80.5623 197.143 81.129 196.765 80.6258C196.387 80.1226 196.199 81.3805 195.947 79.8704C195.696 78.3603 196.325 77.3534 196.325 77.3534C196.325 77.3534 197.332 76.7244 197.584 76.2839C197.835 75.8433 198.842 75.6546 199.661 75.9694C200.481 76.2842 201.675 76.221 202.683 76.4102C203.69 76.5986 203.627 77.2279 204.131 76.4102C204.634 75.5917 204.131 75.2146 204.508 74.774C204.886 74.3335 205.327 73.6413 205.641 74.0816C205.956 74.5225 206.586 74.9625 207.09 74.3961C207.593 73.83 207.782 73.7671 207.782 73.7671L208.033 74.019C208.033 74.019 208.6 73.7039 208.6 74.27C208.6 74.8367 209.167 75.4659 208.852 75.9062C208.537 76.3465 208.097 76.2839 208.097 77.3534C208.097 78.423 208.097 78.2345 208.789 79.1157C209.481 79.9962 209.922 79.2412 210.048 80.1852C210.173 81.1292 210.299 80.9405 210.992 81.5695C211.685 82.1985 211.558 82.1985 212.062 82.5762C212.566 82.9538 212.818 83.3315 212.818 82.7022C212.818 82.073 212.881 81.7585 212.818 81.1921C212.754 80.6261 213.321 80.1852 212.943 79.2415C212.564 78.2977 212.88 78.3606 212.125 77.6685C211.37 76.9763 210.866 77.7945 210.614 76.7876C210.363 75.7807 211.81 75.3404 212.188 75.2146C212.566 75.0888 213.132 74.3338 213.257 74.8372C213.383 75.3407 212.314 77.1653 214.139 75.2146C215.965 73.2639 215.146 74.0822 215.146 74.0822C215.146 74.0822 216.09 73.9564 216.279 74.0822C216.468 74.2082 216.972 73.5158 216.783 73.579C216.593 73.6422 214.769 72.5721 214.769 72.5721L213.447 71.8173C213.447 71.8173 213.888 71.5025 214.202 71.5657C214.517 71.6289 214.58 70.9364 214.895 70.8733C215.21 70.8101 217.35 71.3141 217.791 71.5657C218.232 71.8173 219.805 71.8802 219.616 71.7544C219.427 71.6286 218.42 70.8735 218.357 70.6217C218.294 70.3701 216.091 69.8666 215.399 69.9295C214.706 69.9921 214.077 70.1808 213.51 69.9921C212.944 69.8034 212.125 69.3 211.685 69.3C211.244 69.3 205.705 68.2304 205.453 68.2933C205.202 68.3562 204.823 69.5516 204.635 69.3629C204.446 69.1742 204.131 69.1739 203.25 68.9223C202.368 68.6707 201.172 68.4817 199.599 68.3562C198.025 68.2307 196.955 68.482 196.515 67.9786C196.074 67.4751 195.13 67.6641 194.06 67.6009C192.99 67.5383 191.731 67.6009 191.164 67.6009C190.598 67.6009 189.276 67.5383 188.961 67.4751C188.646 67.4119 188.269 66.9716 187.891 66.909C187.513 66.8458 187.576 66.7203 186.821 66.5945C186.066 66.4687 186.129 65.6508 185.877 66.3427C185.625 67.0351 185.751 66.8461 185.373 67.0977C184.996 67.3493 184.618 67.8528 184.366 67.8528C184.114 67.8528 183.107 67.9157 182.918 67.7899C182.729 67.6641 182.414 67.5383 181.785 67.5383C181.155 67.5383 181.155 67.6009 180.337 67.4751C179.519 67.3493 178.889 67.4119 178.134 67.0348C177.379 66.6577 177.379 66.4056 176.749 66.4685C176.12 66.5314 176.12 66.3427 175.238 66.3427C174.357 66.3427 173.287 66.8461 172.721 66.909C172.155 66.9719 170.896 66.8458 170.455 66.6572C170.014 66.4685 169.888 66.0282 168.251 66.2166C166.615 66.4056 165.671 66.4056 165.985 65.9021C166.3 65.3986 166.678 64.8955 166.866 64.8326C167.055 64.7697 167.496 64.4552 167.181 64.3294C166.866 64.2033 166.552 64.0149 165.796 63.9517C165.041 63.8885 165.103 64.2033 163.971 64.0775C162.838 63.9517 164.6 63.6372 162.272 63.7001C159.943 63.7633 159.376 63.9517 159.124 63.9517C158.873 63.9517 158.557 63.4485 157.928 64.2033C157.299 64.9581 156.417 65.3986 155.158 65.4615C153.9 65.5244 153.836 65.3357 152.641 65.776C151.445 66.2163 150.689 65.6502 150.941 66.6569C151.193 67.6635 151.508 68.0412 151.508 68.2299C151.508 68.4186 150.941 69.6771 150.249 68.922C149.557 68.167 148.297 65.2097 148.864 67.2232C149.43 69.2365 150.689 69.929 149.493 70.2434C148.298 70.5579 148.423 70.1177 148.234 69.9916C148.046 69.8658 148.234 68.9849 148.171 68.4815C148.108 67.978 147.982 67.6635 147.731 67.4119C147.479 67.1603 147.542 66.7827 147.038 66.6569C146.535 66.5311 146.975 66.2792 146.157 66.2792C145.339 66.2792 144.646 65.7757 144.835 66.9085C145.024 68.0412 145.213 67.2861 145.716 68.3557C146.219 69.4252 147.164 68.6702 146.472 69.4252C145.779 70.1803 143.954 69.9287 143.513 69.6142C143.072 69.2997 143.198 69.74 142.38 69.1736C141.561 68.6073 141.814 68.1667 140.869 68.6073C139.925 69.0478 139.61 69.8658 139.233 69.551C138.855 69.2362 137.974 69.9913 137.659 69.6142C137.344 69.2371 136.085 69.2365 135.834 69.6142C135.582 69.9919 134.826 69.9287 133.756 70.4321C132.686 70.9356 133.001 70.4948 131.679 71.5646C130.357 72.6344 129.601 73.515 129.161 72.8228C128.72 72.1309 126.328 70.9353 127.273 70.7463C128.217 70.5574 128.657 70.1803 129.161 70.6206C129.665 71.0608 130.483 70.9353 130.609 70.6206C130.734 70.3058 131.301 69.9913 130.546 69.6139C129.79 69.2365 129.727 69.4878 128.532 69.0476C127.335 68.607 128.532 68.7331 126.895 68.4812C125.258 68.2293 124.565 68.1038 124.125 67.978C123.684 67.8522 123.055 67.978 122.426 67.9151C121.796 67.8522 121.356 67.7264 120.789 67.7893C120.223 67.8522 119.908 67.7264 119.152 68.2928C118.397 68.8591 117.83 69.1107 117.327 69.551C116.823 69.9913 115.502 70.8724 115.124 71.1872C114.746 71.502 113.424 72.5083 113.298 72.886C113.172 73.2637 113.424 73.5781 112.92 73.8297C112.417 74.0813 111.913 74.0813 111.535 74.1442C111.158 74.2071 111.535 73.5779 111.158 74.2071C110.78 74.8364 110.906 77.1015 111.221 76.7868C111.535 76.472 111.346 75.4656 112.731 76.4097C114.116 77.3537 114.998 77.2273 114.934 78.1082C114.871 78.989 115.879 78.9261 116.004 79.1151C116.13 79.3035 116.76 78.8632 116.76 78.8632C116.76 78.8632 118.145 77.9824 118.145 77.5421C118.145 77.1018 119.026 76.0949 119.026 76.0949C119.026 76.0949 118.396 75.7804 118.396 75.1512C118.396 74.5219 118.585 74.3329 118.711 73.7037C118.837 73.0744 118.019 73.7039 119.907 72.508C121.796 71.3121 121.921 72.1309 121.921 72.1309C121.921 72.1309 122.173 72.3825 121.858 72.7599C121.543 73.1373 120.977 74.1445 120.851 74.27C120.725 74.3955 121.418 75.4027 121.732 75.4027C122.047 75.4027 122.676 75.1509 123.054 75.2138C123.432 75.2769 124.061 75.0254 124.25 75.1512C124.439 75.2769 124.879 75.6543 124.565 75.9691C124.25 76.2839 123.557 76.661 123.054 76.5355C122.551 76.4099 121.795 75.5285 122.236 76.7871C122.676 78.0456 122.173 78.3601 121.795 78.2972C121.418 78.2343 120.599 77.6053 120.725 78.549C120.851 79.4928 119.907 80.1218 119.718 80.1218C119.529 80.1218 119.151 80.0589 119.151 80.0589C119.151 80.0589 118.585 79.9957 118.27 79.9957C117.955 79.9957 117.326 80.3102 117.137 80.562C116.948 80.8136 116.696 80.6252 116.382 80.6252C116.067 80.6252 116.382 80.2475 115.752 80.1218C115.123 79.996 114.745 79.8702 114.368 80.1218C113.99 80.3733 113.423 80.4991 113.171 80.3104C112.919 80.1218 113.298 79.6809 112.794 79.9331C112.29 80.1852 111.912 80.8768 111.724 80.94C111.535 81.0026 112.29 80.94 111.535 81.0026C110.78 81.0658 110.465 81.2548 110.087 81.3803C109.709 81.5058 110.213 82.2611 109.52 82.5127C108.828 82.7643 109.332 82.1982 108.639 82.7643C107.947 83.3309 107.821 83.8341 107.569 83.897C107.317 83.9602 107.381 84.0857 106.814 84.1486C106.247 84.2115 106.311 84.2744 105.995 84.3373C105.68 84.4002 106.059 84.5263 105.366 84.4002C104.674 84.2741 104.17 84.5263 104.296 84.7779C104.422 85.0295 106.751 85.7216 104.988 85.6587C103.226 85.5958 103.792 85.9103 104.17 86.1619C104.548 86.4135 104.736 86.6651 104.925 86.7283C105.114 86.7914 105.429 87.5465 105.429 87.5465C105.429 87.5465 105.932 87.4833 105.618 87.9239C105.303 88.3644 105.744 88.4902 105.429 89.0566C105.114 89.623 105.114 89.2453 104.862 89.3711C104.611 89.4969 104.233 89.9374 103.54 89.5598C102.847 89.1821 102.345 88.9934 101.526 88.9308C100.708 88.8676 101.274 88.7421 100.708 89.1821C100.141 89.623 100.015 90.1261 100.079 90.6922C100.141 91.2583 100.204 92.0136 100.015 92.3913C99.8263 92.769 99.8266 93.1463 99.9521 93.7127C100.078 94.2788 100.456 94.5309 100.456 94.5309C100.456 94.5309 101.337 94.6565 101.526 94.7196C101.715 94.7828 102.093 94.5938 102.596 94.908C103.1 95.2228 103.603 95.3489 103.918 94.9712C104.233 94.5936 105.492 94.1533 105.87 93.7759C106.248 93.3985 106.499 93.2727 106.31 92.895C106.121 92.5174 106.688 91.5736 107.003 91.3849C107.317 91.1962 108.01 91.0073 108.01 91.0073L108.765 89.8748C108.765 89.8748 109.395 89.1824 109.709 89.2456C110.024 89.3087 111.786 89.938 111.661 89.1201C111.535 88.3021 111.787 88.0502 111.975 88.3647C112.164 88.6792 112.668 88.5534 112.668 88.5534C112.668 88.5534 112.919 88.4279 113.108 88.6166C113.297 88.805 113.549 89.6235 113.927 89.8119C114.304 90.0009 114.619 90.1896 114.871 90.3151C115.123 90.4406 115.375 90.3151 115.878 90.7557C116.382 91.1962 116.885 91.4481 116.948 91.6365C117.011 91.8252 117.452 92.2658 117.452 92.2658C117.452 92.2658 117.892 92.3916 117.767 92.6434C117.641 92.8953 117.011 93.6504 116.697 93.7759C116.382 93.9014 115.564 93.6498 115.878 93.9017C116.193 94.1533 116.634 94.468 116.822 94.2791C117.011 94.0904 118.207 92.8319 118.207 92.8319C118.207 92.8319 118.144 92.8948 118.207 92.5171C118.27 92.1394 118.207 91.6994 118.522 91.8881C118.837 92.0771 119.026 92.3287 119.151 92.0771C119.277 91.8255 119.403 91.9513 119.088 91.7626C118.773 91.5739 118.018 90.5041 117.64 90.4412C117.263 90.3783 116.318 89.7488 116.318 89.7488C116.318 89.7488 116.13 89.5601 115.689 89.0569C115.248 88.5537 115.123 88.6792 114.996 88.2386C114.87 87.7981 114.493 87.232 115.185 87.3578C115.878 87.4836 116.318 87.9239 116.948 88.3015C117.577 88.6792 117.452 88.8047 118.018 89.1824C118.584 89.5601 118.648 89.9377 119.088 89.8748C119.528 89.8119 120.032 90.1264 120.032 90.6928C120.032 91.2591 120.158 91.8881 120.284 92.0142C120.41 92.1403 120.787 92.3919 120.913 92.6434C121.039 92.895 121.291 93.5243 121.48 93.7759C121.669 94.0275 121.857 94.2164 122.046 94.5312C122.235 94.8457 122.298 94.468 122.487 94.5941C122.676 94.7199 122.927 94.6567 122.927 94.4051C122.927 94.1536 122.99 93.713 122.99 93.713C122.99 93.713 123.872 93.4614 123.62 93.3353C123.368 93.2092 122.613 92.4545 122.676 92.2029C122.739 91.9513 122.676 91.4481 122.99 91.511C123.305 91.5736 123.62 92.14 124.312 91.6365C125.005 91.1331 125.823 90.8815 125.571 91.6365C125.319 92.3916 125.635 92.5171 125.571 93.3353C125.508 94.1536 125.823 93.9017 126.264 94.3422C126.705 94.7828 127.019 94.846 127.334 94.9715C127.648 95.097 128.152 95.0347 128.656 95.0976C129.16 95.1605 129.474 94.9086 129.915 95.0347C130.355 95.1605 131.363 94.9715 131.552 95.0976C131.741 95.2237 132.496 94.846 132.559 95.2863C132.622 95.7268 132.874 95.2234 132.685 96.23C132.496 97.2367 132.244 97.9288 132.244 97.9288C131.552 99.2502 131.3 99.565 130.985 99.6279C130.671 99.6908 130.482 99.8795 129.915 99.8166C129.349 99.7534 128.656 99.8166 127.838 99.6279C127.02 99.4392 125.509 99.8166 124.879 99.4389C124.25 99.0613 123.369 99.376 122.991 98.9357C122.613 98.4955 121.984 98.5581 121.732 98.3065C121.48 98.0549 121.354 97.363 121.354 98.3697C121.354 99.3763 120.788 99.4392 120.662 99.9427C120.536 100.446 120.85 100.194 120.158 100.131C119.466 100.068 119.277 100.446 118.27 99.6911C117.263 98.9363 116.759 98.936 116.256 98.6213C115.752 98.3065 115.248 99.1873 114.745 98.181C114.241 97.1746 113.549 97.992 113.486 97.174C113.423 96.3558 113.486 96.4193 113.549 95.9158C113.612 95.4123 114.304 94.9721 113.989 94.7834C113.675 94.5947 113.926 94.2799 113.486 94.4689C113.045 94.6579 112.416 94.7205 111.912 94.9092C111.408 95.0981 113.045 94.9092 110.59 95.0981C108.135 95.2871 107.443 95.5384 107.443 95.5384C107.443 95.5384 107.254 95.4126 106.939 95.6642C106.624 95.9158 106.184 96.2935 105.743 96.1048C105.303 95.9158 105.051 95.9787 104.673 96.0419C104.296 96.1051 104.044 95.7274 103.603 96.0419C103.162 96.3561 102.659 96.4822 102.47 96.3561C102.281 96.2286 101.966 95.7254 101.966 95.7254Z" fill="#B2B2B2"/>
<path d="M144.077 137.127C143.888 137.819 143.196 138.826 143.196 138.826L141.937 139.455C141.937 139.455 141.497 139.833 141.244 139.896C140.993 139.958 140.363 140.273 140.363 140.273C140.363 140.273 139.797 140.147 139.985 140.713C140.174 141.28 140.237 141.972 140.174 142.16C140.112 142.349 140.112 142.727 140.112 143.231C140.112 143.734 139.923 144.363 139.608 144.489C139.293 144.614 138.978 144.74 139.041 145.181C139.104 145.622 139.105 146.943 139.105 146.943L139.923 148.201C139.923 148.201 140.175 148.012 140.678 148.012C141.182 148.012 141.685 147.572 141.685 147.572C141.685 147.572 142.252 147.698 142.189 147.006C142.126 146.314 142.441 145.496 142.378 145.307C142.315 145.118 142.945 144.3 142.945 144.112C142.945 143.923 143.574 143.042 143.574 142.727C143.574 142.412 144.015 141.909 144.077 141.532C144.14 141.155 144.203 140.274 144.329 140.022C144.455 139.771 144.518 139.519 144.518 139.267C144.518 139.016 144.518 138.512 144.518 138.512L144.077 137.127Z" fill="#B2B2B2"/>
<path d="M193.363 145.622C193.174 145.873 193.049 148.579 192.923 148.894C192.797 149.208 192.545 150.844 192.671 151.221C192.798 151.598 192.986 152.983 192.86 153.424C192.735 153.864 192.923 155.248 192.608 155.186C192.294 155.122 192.168 155.249 192.168 155.437C192.168 155.626 192.608 156.003 192.608 156.003C192.608 156.003 193.364 156.004 193.678 155.94C193.993 155.877 194.623 155.563 195.126 155.563C195.63 155.563 195.945 155.185 196.385 155.185C196.826 155.185 197.77 154.871 198.022 154.996C198.274 155.122 198.651 154.241 199.092 154.43C199.533 154.619 200.477 153.99 200.917 153.99C201.358 153.99 201.547 153.297 202.051 153.424C202.554 153.55 203.498 153.172 203.939 153.36C204.379 153.549 205.072 152.731 205.387 153.36C205.701 153.989 206.646 154.241 206.646 154.556C206.646 154.87 206.582 155.563 206.582 155.563L207.338 155.499C207.338 155.499 208.533 154.744 208.723 154.744C208.912 154.744 209.352 154.115 209.352 154.43C209.352 154.744 208.974 155.437 208.849 155.751C208.723 156.066 208.974 156.444 208.974 156.444C208.974 156.444 209.604 156.758 209.352 157.324C209.1 157.891 209.415 157.765 209.352 158.205C209.289 158.646 209.352 158.457 209.603 158.708C209.855 158.96 210.297 159.401 210.674 159.338C211.051 159.274 211.177 158.898 211.492 159.086C211.807 159.275 212.436 159.149 212.625 159.401C212.815 159.652 211.429 160.282 213.821 159.212C216.213 158.143 216.464 157.891 216.779 157.513C217.094 157.135 217.473 156.758 217.724 156.506C217.975 156.255 217.787 156.318 218.542 155.751C219.297 155.185 219.297 155.437 219.99 154.367C220.683 153.297 221.186 152.92 221.312 152.731C221.439 152.542 221.69 152.48 221.753 151.724C221.816 150.969 222.319 150.277 222.319 150.025C222.319 149.774 222.508 149.397 222.445 148.956C222.382 148.515 222.697 147.887 222.319 147.257C221.941 146.628 222.508 146.377 221.941 146.124C221.375 145.872 220.997 145.999 220.871 145.558C220.745 145.118 220.241 145.181 220.053 143.985C219.864 142.79 219.109 142.664 219.109 142.664C219.109 142.664 218.353 142.349 218.542 142.224C218.731 142.098 218.794 141.216 218.731 140.965C218.668 140.713 218.668 140.147 218.48 139.77C218.291 139.392 218.165 138.889 217.976 138.448C217.787 138.007 217.473 137.882 217.346 137.379C217.22 136.875 217.032 136.686 216.969 136.561C216.905 136.435 216.779 135.806 216.654 136.497C216.528 137.19 216.276 138.511 216.276 138.511C216.276 138.511 215.772 139.581 215.583 139.895C215.395 140.209 215.206 141.028 214.891 140.965C214.577 140.901 214.387 141.28 214.136 141.216C213.885 141.153 213.506 141.279 213.318 141.091C213.129 140.902 212.625 140.398 212.373 140.335C212.122 140.273 211.933 139.769 211.744 139.769C211.555 139.769 211.24 139.329 211.303 139.077C211.366 138.825 211.429 138.259 211.492 138.007C211.555 137.756 211.933 137.189 211.933 137.189C211.933 137.189 211.933 136.812 211.618 136.812C211.303 136.812 211.24 136.812 210.548 136.749C209.855 136.686 209.667 136.623 209.414 136.623C209.162 136.623 209.667 136.497 208.974 136.686C208.281 136.874 207.967 137.378 207.526 137.819C207.086 138.259 207.463 138.133 207.086 138.259C206.709 138.385 206.771 137.944 206.519 138.637C206.267 139.329 206.645 139.517 206.456 139.643C206.266 139.769 204.946 139.203 204.946 139.203C204.946 139.203 205.26 139.14 205.008 138.825C204.756 138.511 204.505 138.071 204.128 138.259C203.75 138.448 203.434 138.574 203.183 138.889C202.932 139.203 202.931 139.455 202.743 139.706C202.554 139.958 202.05 139.958 201.987 140.21C201.924 140.462 201.924 141.091 201.736 141.153C201.547 141.217 201.484 140.902 201.295 140.839C201.106 140.776 201.169 140.273 201.044 140.588C200.918 140.902 200.792 140.839 200.603 141.342C200.414 141.846 200.351 142.286 200.162 142.349C199.974 142.412 200.162 142.475 199.595 142.79C199.029 143.104 198.903 143.104 198.085 143.482C197.267 143.86 197.456 143.86 196.889 143.922C196.323 143.986 196.197 144.174 195.819 144.237C195.441 144.3 195.19 144.363 194.812 144.74C194.434 145.118 194.12 145.244 193.868 145.307C193.616 145.37 193.363 145.622 193.363 145.622Z" fill="#B2B2B2"/>
<path d="M197.079 120.768C196.827 121.146 196.009 122.278 195.694 122.341C195.379 122.404 195.064 122.719 194.813 122.656C194.561 122.593 193.994 122.656 193.806 123.474C193.617 124.292 193.302 124.732 193.113 124.669C192.923 124.606 193.427 125.864 192.358 125.362C191.288 124.859 191.665 125.802 191.539 126.054C191.413 126.306 191.728 126.998 191.791 127.249C191.854 127.501 192.043 127.941 192.295 128.319C192.547 128.696 192.735 129.137 193.176 129.011C193.617 128.886 195.001 129.011 195.001 129.011C195.001 129.011 195.505 129.2 195.82 129.2C196.134 129.2 196.197 129.074 196.386 129.074C196.574 129.074 196.952 128.445 196.889 128.382C196.827 128.319 196.638 128.13 197.015 127.753C197.393 127.375 197.834 127.249 197.897 126.809C197.96 126.368 197.771 126.368 197.96 126.116C198.149 125.864 198.589 125.928 198.463 125.676C198.338 125.424 198.589 125.487 198.337 124.984C198.086 124.48 197.771 124.291 198.022 123.662C198.274 123.033 198.527 122.907 198.463 122.53C198.4 122.152 198.778 122.026 198.337 121.586C197.897 121.146 197.708 121.02 197.393 120.893L197.079 120.768Z" fill="#B2B2B2"/>
<path d="M209.416 127.06C209.668 126.997 210.549 126.368 210.612 127.501C210.675 128.634 210.737 128.319 211.116 128.948C211.494 129.577 211.744 129.766 212.185 129.452C212.626 129.137 213.129 129.137 213.255 128.571C213.381 128.004 213.381 128.004 213.759 128.004C214.136 128.004 214.262 127.941 214.452 128.194C214.641 128.445 214.766 128.193 215.585 128.634C216.404 129.074 217.095 128.948 217.599 129.389C218.104 129.83 218.355 129.767 219.047 130.018C219.739 130.269 219.424 129.892 220.054 130.584C220.683 131.276 220.432 131.465 220.746 131.78C221.061 132.094 221.313 131.528 221.187 132.283C221.061 133.038 220.18 132.283 221.502 133.352C222.824 134.421 223.013 134.611 223.453 134.925C223.894 135.24 224.209 135.618 223.831 135.618C223.454 135.618 222.257 135.618 222.132 135.429C222.006 135.24 221.439 135.114 221.061 134.674C220.684 134.234 219.866 133.919 219.677 133.541C219.488 133.163 219.236 133.038 218.922 133.038C218.607 133.038 218.292 133.415 217.851 133.856C217.41 134.296 217.6 133.604 217.033 133.793C216.466 133.982 215.838 133.73 215.522 133.478C215.207 133.227 215.271 132.849 214.768 133.038C214.264 133.227 213.949 133.101 214.138 132.723C214.327 132.346 214.201 131.842 214.201 131.842C214.201 131.842 214.39 131.213 213.95 131.087C213.509 130.962 213.509 130.521 213.068 130.395C212.627 130.269 211.935 129.955 211.935 129.955C211.935 129.955 211.872 129.955 211.683 129.892C211.494 129.829 211.494 129.829 210.991 129.703C210.487 129.578 210.109 129.703 209.858 129.388C209.606 129.074 209.732 128.633 209.732 128.633C209.732 128.633 210.739 128.759 209.732 128.004L208.725 127.249C208.725 127.249 208.85 127.186 208.787 127.06C208.724 126.934 209.416 127.06 209.416 127.06Z" fill="#B2B2B2"/>
<path d="M181.089 121.836C181.089 121.836 181.404 122.151 181.907 122.088C182.411 122.025 182.788 123.095 183.104 123.472C183.418 123.85 183.607 124.039 184.299 124.479C184.992 124.92 184.929 124.102 185.873 125.423C186.817 126.744 186.376 125.926 186.817 126.744C187.258 127.563 187.51 128.003 187.761 128.192C188.013 128.381 188.202 128.884 188.265 129.073C188.328 129.261 188.768 129.828 188.768 130.016C188.768 130.205 188.895 130.709 188.517 131.149C188.139 131.589 187.824 131.652 187.824 131.652C187.824 131.652 187.069 131.275 186.817 130.897C186.566 130.52 186.251 130.205 185.81 129.45C185.369 128.696 184.866 127.877 184.614 127.5C184.362 127.122 183.985 126.744 183.796 126.367C183.607 125.99 183.103 124.857 182.852 124.731C182.6 124.605 182.537 124.228 182.096 123.787C181.656 123.347 181.718 122.969 181.53 122.718C181.341 122.466 180.9 121.899 180.9 121.899L181.089 121.836Z" fill="#B2B2B2"/>
<path d="M58.6578 170.916C58.2171 170.665 57.2729 170.224 56.9583 169.972C56.6437 169.721 55.6996 168.336 55.6996 168.336L55.0068 167.015C55.0068 167.015 54.1888 166.008 54.3776 165.631C54.5664 165.253 54.9442 165.001 54.9442 164.813C54.9442 164.624 55.3217 164.12 55.0068 163.932C54.6922 163.743 54.6922 163.68 54.5032 163.114C54.3144 162.548 54.3144 162.044 54.0627 161.918C53.811 161.793 53.622 160.974 53.3703 160.912C53.1186 160.849 52.8666 160.408 52.8666 160.408L52.4888 155.311C52.4888 155.311 52.3626 152.984 52.2371 152.48C52.1115 151.976 52.4258 150.907 52.1109 149.963C51.7961 149.019 52.1742 147.887 51.9851 147.509C51.7961 147.132 52.111 146.062 51.9222 145.056C51.7334 144.049 52.6775 142.791 51.9222 142.413C51.1668 142.036 51.7334 141.469 51.1039 141.469C50.4744 141.469 50.0339 141.154 49.4673 140.714C48.9007 140.274 47.8305 139.456 47.5158 139.141C47.2012 138.827 46.1939 138.008 45.8793 137.757C45.5646 137.505 45.2497 136.435 44.998 136.121C44.7464 135.806 44.6205 134.863 44.2427 134.296C43.8649 133.73 43.3615 132.786 43.2353 132.597C43.1092 132.408 41.7246 130.773 41.7246 130.773L41.8505 129.766C41.8505 129.766 42.7946 129.2 42.6687 129.011C42.5429 128.822 42.7319 128.633 42.2909 128.256C41.8499 127.879 41.9131 127.186 42.2909 126.872C42.6687 126.557 43.2351 125.55 43.2351 125.55L44.1792 123.977C44.1792 123.977 44.9348 123.159 44.9348 122.593C44.9348 122.027 46.0048 121.649 45.3753 121.146C44.7458 120.642 45.0607 120.202 44.8716 119.824C44.6826 119.447 44.8087 119.195 45.3753 118.818C45.9419 118.44 46.949 117.056 46.949 117.056C46.949 117.056 47.7043 116.867 47.8931 116.867C48.0819 116.867 48.3968 114.853 48.9634 116.174C49.53 117.496 49.7187 116.804 49.53 117.747C49.3412 118.691 49.7817 118.503 50.0333 118.251C50.285 118 49.9072 118.44 50.4109 117.307C50.9146 116.174 50.7258 115.797 51.0404 116.112C51.355 116.427 51.4809 116.489 52.0475 116.678C52.6138 116.867 52.8028 116.804 52.9913 117.181C53.1801 117.559 53.1175 117.056 54.1874 117.245C55.2574 117.434 56.7682 116.867 56.5794 117.496C56.3906 118.125 56.0128 117.433 56.894 118.125C57.7752 118.817 57.9013 118.943 58.4047 119.069C58.9081 119.195 59.3489 119.132 60.1045 119.887C60.8602 120.642 61.0486 120.705 61.2374 121.082C61.4262 121.459 61.7408 121.208 62.0557 121.586C62.3706 121.963 62.8111 121.964 63.2515 121.964C63.692 121.964 63.2515 121.586 63.944 122.089C64.6364 122.593 65.1401 122.655 65.4547 123.662C65.7693 124.669 66.3988 124.606 65.8952 125.613C65.3915 126.62 64.3847 127.06 64.8252 126.997C65.2657 126.934 66.0842 126.556 66.3359 126.62C66.5876 126.682 66.7135 126.431 67.0913 126.62C67.4691 126.808 67.532 126.368 67.4691 126.808C67.4062 127.249 67.4059 126.808 67.4059 127.249C67.4059 127.689 67.2801 126.808 68.0354 126.997C68.7908 127.186 68.35 126.619 69.2313 127.438C70.1125 128.256 70.1127 128.004 70.4271 128.445C70.742 128.885 71.0566 128.193 71.2457 128.382C71.4347 128.57 72.001 128.444 72.5676 128.57C73.1342 128.696 72.7564 128.193 73.6379 128.759C74.5188 129.325 75.4003 129.136 75.5891 129.64C75.7779 130.143 76.2818 129.954 76.5332 130.269C76.7846 130.584 76.9108 130.143 77.1627 130.584C77.4144 131.024 78.1701 130.898 78.0439 131.338C77.9178 131.779 78.2324 131.527 78.1066 132.156C77.9807 132.785 77.54 133.793 77.1627 134.044C76.7855 134.295 76.7852 134.61 76.5332 134.925C76.2812 135.239 76.3444 134.61 76.0295 135.491C75.7146 136.372 75.7779 136.498 75.5262 137.316C75.2745 138.134 75.4632 137.316 75.2745 138.134C75.0857 138.952 75.2115 139.455 75.0228 140.399C74.834 141.343 74.8969 141.343 74.7711 142.035C74.6452 142.727 75.0857 141.721 74.5191 143.168C73.9528 144.615 73.8899 144.552 73.7011 145.181C73.512 145.811 73.764 145.307 73.0716 145.685C72.3791 146.062 72.757 145.936 71.9384 146.188C71.1204 146.44 70.113 146.692 69.7984 146.754C69.4838 146.817 68.2248 147.195 68.6026 147.95C68.9804 148.704 68.9804 148.831 68.6026 149.775C68.2248 150.719 67.6584 151.033 67.6584 151.473C67.6584 151.914 67.4065 152.354 67.3438 152.669C67.2806 152.983 67.9101 152.354 67.1551 153.298C66.4 154.242 66.3368 153.99 66.0848 154.556C65.8331 155.122 66.0848 154.682 65.8331 155.122C65.5814 155.563 64.9519 155.751 64.9519 155.751C64.9519 155.751 65.0145 156.066 64.7628 155.94C64.5111 155.815 64.5741 156.003 63.6296 155.751C62.6852 155.5 62.5597 154.871 62.4338 155.311C62.308 155.751 62.4967 156.004 63.0633 156.444C63.6296 156.884 64.5741 157.01 64.3221 157.451C64.0701 157.892 64.0704 157.891 63.8816 158.143C63.6926 158.395 64.1333 158.206 63.6926 158.395C63.2518 158.584 63.0001 159.402 62.8114 159.402C62.6226 159.402 62.4965 159.716 62.2448 159.59C61.9931 159.465 61.3638 159.024 61.2377 159.276C61.1116 159.527 60.8599 158.961 60.9228 159.842C60.9857 160.723 61.1119 161.226 60.797 161.415C60.4821 161.604 59.7267 161.415 59.7267 161.415L59.6008 161.1L59.1604 161.226C59.1604 161.226 58.9716 161.981 59.2862 162.107C59.6008 162.233 59.5379 162.358 59.8525 162.736C60.1672 163.114 59.9787 163.806 59.9787 163.806C59.9787 163.806 59.9787 163.995 59.664 164.309C59.3494 164.624 59.2233 164.875 59.1604 165.064C59.0972 165.253 58.7196 166.071 59.2862 166.008C59.8525 165.945 60.2936 165.63 60.2936 166.637C60.2936 167.644 60.5453 167.393 60.2306 168.084C59.9157 168.777 59.664 168.839 59.6011 169.468C59.5385 170.098 59.6643 170.161 59.7902 170.538C59.916 170.916 60.2309 170.727 59.916 170.916C59.602 171.105 58.6578 170.916 58.6578 170.916Z" fill="#B2B2B2"/>
<path d="M42.4176 119.698L41.9771 119.069C41.9771 119.069 41.7884 118.691 41.4735 118.629C41.1586 118.566 40.4661 117.748 40.4661 117.748C40.4661 117.748 40.1515 117.496 40.1515 117.056C40.1515 116.616 39.8995 115.923 40.0883 115.168C40.2771 114.413 40.3403 113.47 40.2774 113.218C40.2142 112.966 40.592 112.903 40.1515 112.651C39.7111 112.399 38.8296 112.337 38.263 112.337C37.6967 112.337 37.0039 112.526 36.8781 112.588C36.7522 112.651 37.5705 110.701 37.6964 110.386C37.8222 110.072 38.3888 108.687 38.3888 108.499C38.3888 108.31 38.5776 108.247 38.2 107.996C37.8225 107.744 37.193 107.618 36.8152 107.807C36.4376 107.996 36.5005 107.555 36.1859 108.31C35.8713 109.065 35.5564 109.883 35.1786 110.009C34.8008 110.135 34.0457 110.513 34.0457 110.513C34.0457 110.513 33.1015 110.45 32.7866 110.387C32.4717 110.324 31.1501 109.632 30.8984 109.191C30.6467 108.751 30.5208 107.807 30.5208 107.367C30.5208 106.926 31.213 105.605 31.1501 105.29C31.0871 104.976 31.8428 103.717 31.7796 103.528C31.7164 103.339 31.9054 102.71 32.0942 102.459C32.283 102.207 33.2274 101.892 33.4791 101.641C33.7308 101.389 34.1715 101.075 34.612 100.949C35.0525 100.823 35.4306 100.697 35.7452 100.697C36.0598 100.697 36.8781 100.005 37.0039 100.697C37.1298 101.389 37.6967 101.137 38.0113 101.2C38.3259 101.263 38.3891 101.578 38.8925 100.76C39.3959 99.9421 39.8995 99.6902 39.8995 99.8789C39.8995 100.068 40.7178 99.8163 40.8437 100.005C40.9695 100.194 41.2215 99.8789 41.662 100.257C42.1024 100.634 42.732 100.697 42.669 100.886C42.6061 101.074 42.9207 101.074 42.9207 101.263C42.9207 101.452 43.1727 100.823 43.1727 101.955C43.1727 103.088 43.4873 103.78 43.4873 103.78C43.4873 103.78 43.9278 104.724 44.1166 104.535C44.3053 104.346 44.6829 103.843 44.6829 103.843C44.6829 103.843 45.3124 103.465 44.8719 102.144C44.4312 100.823 44.7461 100.445 44.6202 100.005C44.4944 99.5642 44.4941 99.3123 45.2495 98.7462C46.0048 98.1801 47.8302 96.9216 48.2709 96.67C48.7117 96.4184 49.7185 95.7263 49.7185 95.7263C49.7185 95.7263 50.096 95.5376 50.1592 95.0341C50.2224 94.5307 51.418 93.6498 51.4812 93.3982C51.5444 93.1466 52.3627 92.5176 52.3627 92.5176C52.3627 92.5176 53.2436 92.0139 53.1807 91.6997C53.1177 91.3852 54.3139 90.8191 54.5026 90.8191C54.6914 90.8191 55.6987 91.1333 55.6987 90.567C55.6987 90.0009 55.6987 89.8748 56.3283 89.3716C56.9578 88.8685 57.7758 88.1131 58.0907 88.1131C58.4056 88.1131 59.4756 87.5473 59.916 87.4212C60.3565 87.2952 61.7417 86.6659 60.4826 87.4212C59.2236 88.1766 60.0419 87.7357 59.7902 88.365C59.5385 88.9942 59.3494 89.8122 60.5455 88.8682C61.7417 87.9241 61.6785 87.7355 62.1192 87.6728C62.5599 87.6099 62.245 87.8615 63.1892 87.5468C64.1333 87.232 64.1965 87.1065 64.1965 87.1065C64.1965 87.1065 64.6373 86.7288 64.3853 86.5404C64.1336 86.3514 64.6373 86.0998 63.6929 86.4772C62.7484 86.8546 62.8116 86.9178 62.1821 86.7288C61.5526 86.5398 60.6085 86.6027 61.3009 85.9735C61.9934 85.3442 62.8746 85.1555 62.308 84.9039C61.7417 84.6523 60.2939 84.9671 60.1051 85.0297C59.916 85.0926 59.4756 84.9668 59.0977 85.0297C58.7199 85.0926 58.846 84.5268 59.0977 84.4008C59.3494 84.2747 60.168 83.897 61.1751 83.6454C62.1821 83.3938 64.6373 83.3309 65.2036 83.3309C65.7699 83.3309 66.5253 83.457 66.966 83.1422C67.4068 82.8275 68.288 82.3246 68.4138 82.0724C68.5397 81.8203 69.0433 81.4434 69.0433 81.4434C69.0433 81.4434 69.6096 80.8771 69.295 80.6255C68.9804 80.3739 68.6655 79.8075 68.4138 79.9333C68.1621 80.0591 68.3512 80.8145 67.8475 79.9962C67.3438 79.1786 67.4068 79.0525 67.1551 78.8638C66.9034 78.6751 66.6514 78.8006 66.8404 77.92C67.0295 77.0395 66.9663 76.6615 66.9663 76.6615C66.9663 76.6615 67.1551 75.9068 66.9663 75.8439C66.7772 75.7807 66.6517 75.5923 66.3371 75.7807C66.0222 75.9694 64.2597 76.8505 63.8822 77.0392C63.5044 77.2279 63.0007 76.2841 63.1895 75.8439C63.3785 75.403 63.2524 75.6549 63.0007 75.0259C62.749 74.3969 61.7419 74.2706 61.3641 74.2706C60.9863 74.2706 60.1054 73.7042 59.8534 74.0819C59.6014 74.4595 58.28 75.6546 58.0278 75.7807C57.7755 75.9068 57.3985 74.7111 57.2097 76.6615C57.0207 78.6125 57.9022 79.1786 56.8951 79.3044C55.8881 79.4302 55.0066 79.9962 55.0066 79.9962C55.0066 79.9962 54.1886 80.0594 54.1886 80.5626C54.1886 81.0658 53.8739 82.2614 53.4958 82.3872C53.1177 82.513 52.1739 82.3246 51.8593 81.9469C51.5446 81.5692 51.9222 80.1852 51.9222 80.1852L52.4888 79.6188C52.4888 79.6188 48.4603 78.9899 48.5229 78.738C48.5861 78.4864 47.3271 78.0461 47.2012 77.6685C47.0754 77.2908 47.0122 76.4728 47.1383 76.1583C47.2644 75.8439 48.9637 74.3338 49.8449 74.0193C50.7261 73.7048 52.2368 73.0126 52.6776 72.8865C53.1183 72.7605 53.8734 72.8236 54.1254 72.5092C54.3773 72.1947 54.44 71.6283 54.44 71.6283C54.44 71.6283 54.3141 70.7472 54.5658 70.873C54.8175 70.9988 55.2583 71.1877 55.3212 71.3764C55.3841 71.5651 55.3844 72.0057 55.8249 71.502C56.2653 70.9982 56.8322 70.8098 57.3356 70.5585C57.839 70.3072 58.5943 70.3698 59.0354 70.1182C59.4764 69.8666 60.2312 69.6147 60.2941 68.9855C60.3571 68.3562 60.1054 68.5452 59.7905 68.482C59.4758 68.4194 59.9163 68.5452 58.8463 69.0484C57.7763 69.5516 58.091 69.1742 57.3356 69.5516C56.5802 69.929 56.517 69.9921 56.4544 69.6776C56.3912 69.3629 56.5802 68.8597 56.5802 68.8597C56.5802 68.8597 56.6434 68.7965 56.2027 68.671C55.7619 68.5455 55.7619 68.7339 55.699 68.1678C55.6361 67.6015 56.0136 66.7835 55.3844 67.0351C54.7552 67.2867 54.1886 66.8464 53.7478 68.1046C53.3071 69.3629 51.7963 70.6846 51.4185 70.3698C51.0407 70.055 50.9781 69.9921 50.6632 69.9921C50.3483 69.9921 49.9078 69.6147 49.3412 69.5518C48.7746 69.4889 47.0748 69.4889 46.6346 69.5518C46.1939 69.615 45.6905 69.3003 45.3124 69.6779C44.9343 70.0556 44.3685 70.5588 44.3685 70.7477C44.3685 70.9367 43.8019 70.0553 43.6132 70.1185C43.4244 70.1817 42.9205 69.8669 42.3544 69.8669C41.7878 69.8669 41.41 69.5521 41.2215 69.5521C41.0327 69.5521 41.41 69.0487 41.2215 68.9858C41.0327 68.9231 36.9407 68.7971 36.9407 68.7971C36.9407 68.7971 35.6191 68.2939 35.1157 68.3568C34.6123 68.4197 33.2274 68.4823 32.1568 68.6713C31.0863 68.8602 29.5129 69.4892 29.0095 69.5521C28.5059 69.6153 27.373 69.6153 27.1842 69.3005C26.9951 68.986 27.2471 69.0489 26.9951 68.986C26.7432 68.9231 26.9325 68.7973 26.3659 68.3571C25.7993 67.9168 26.6179 67.5391 25.4847 67.5391C24.3515 67.5391 23.6593 67.4759 22.6523 67.5391C21.6452 67.6023 19.5679 68.1052 19.3162 68.0423C19.0645 67.9794 17.0501 68.3571 16.7352 68.1684C16.4206 67.9794 14.8466 68.8602 14.5323 68.7973C14.2177 68.7345 13.0216 68.8605 12.707 69.0492C12.3923 69.2379 10.8813 69.6153 11.385 69.9301C11.8887 70.2448 11.8255 70.559 11.8884 70.748C11.9513 70.937 11.385 71.377 11.385 71.377C11.385 71.377 11.2589 71.377 10.5667 71.1254C9.87455 70.8738 9.1189 70.748 8.80401 70.9367C8.48911 71.1254 7.92279 71.5034 8.04864 71.7549C8.17449 72.0065 9.0557 72.5729 9.18183 72.3839C9.30795 72.1949 9.62257 71.8178 10.0001 71.8807C10.3779 71.9439 10.9445 71.6291 10.4409 72.2584C9.93719 72.8877 9.49645 73.2022 9.18183 73.2653C8.86721 73.3279 8.11184 73.3908 7.4194 73.454C6.72696 73.5172 6.7896 73.2024 6.16037 73.8317C5.53113 74.4609 5.27915 74.0833 5.15331 74.7754C5.02746 75.4676 4.90161 75.4673 5.15331 75.6563C5.405 75.8453 4.64964 75.9079 5.21623 76.0966C5.78254 76.2855 6.47499 76.4742 6.41206 76.6626C6.34886 76.8516 7.04158 76.4113 6.66376 76.9142C6.28593 77.4171 6.03452 77.858 6.7896 77.3548C7.54469 76.8516 7.98544 77.2287 8.61495 76.9142C9.24447 76.5998 9.87399 76.5369 10.2515 76.2853C10.6291 76.0337 10.8181 75.6563 11.3847 75.467C11.9513 75.2778 11.5735 75.5302 11.6364 75.8447C11.6993 76.1592 11.6364 76.2221 12.0142 75.9702C12.3921 75.7183 12.3918 75.9076 12.8955 75.5928C13.3991 75.2781 13.9654 74.9636 14.3433 75.1523C14.7208 75.3412 14.8466 75.3412 15.0986 75.3412C15.3506 75.3412 14.784 75.2781 15.3503 75.3412C15.9169 75.4039 15.0986 75.1523 16.9869 75.5928C18.8752 76.0334 19.3791 75.7186 19.5047 76.4108C19.6303 77.1029 19.8825 76.3476 20.1971 76.7882C20.5117 77.2287 20.7008 76.8513 20.8896 77.6061C21.0783 78.3609 20.8896 80.4376 20.7637 80.6892C20.6379 80.9408 20.575 80.9408 20.6379 81.5072C20.7008 82.0733 21.4562 84.7793 21.2045 84.9677C20.9528 85.1561 20.3862 85.2193 20.3862 85.2193L20.0716 86.3517C20.0716 86.3517 19.5682 87.2955 19.1274 87.7989C18.6867 88.3024 18.1204 88.9316 17.8055 89.3716C17.4908 89.8122 17.2389 90.5675 16.7984 91.0078C16.3579 91.4481 15.9801 91.2594 16.106 92.2032C16.2318 93.1469 16.106 94.1535 16.2318 94.846C16.3577 95.5384 16.6726 96.4819 16.9243 96.8595C17.1759 97.2372 17.365 97.2369 17.8055 97.5514C18.2462 97.8659 18.8128 98.2439 18.7496 98.5583C18.6864 98.8728 18.8125 100.824 18.8125 100.824C18.8125 100.824 19.1903 101.453 19.253 102.145C19.3162 102.837 19.7567 103.529 19.7567 103.529L20.1345 104.347C20.1345 104.347 20.3233 104.411 20.5752 104.914C20.8272 105.416 20.8269 105.417 20.8898 105.668C20.9531 105.92 20.9531 105.857 20.9531 105.92C20.9531 105.983 20.8898 104.851 20.764 104.536C20.6382 104.221 20.6382 103.844 20.5123 103.466C20.3865 103.089 20.5752 102.648 20.1977 102.082C19.8201 101.516 19.8201 101.453 19.6314 100.886C19.4426 100.32 19.1906 99.6911 19.4426 99.565C19.6946 99.4389 19.8831 98.6215 20.3867 99.565C20.8904 100.508 20.9533 100.257 21.0163 101.012C21.0789 101.768 21.268 102.019 21.4567 102.334C21.6455 102.648 22.086 103.718 22.3379 104.158C22.5896 104.599 22.3379 103.907 22.9042 104.787C23.4708 105.668 23.534 105.857 23.8487 106.549C24.1633 107.241 24.3523 107.241 24.5411 107.744C24.7299 108.248 24.604 108.122 24.4779 108.688C24.3518 109.254 24.6038 109.884 24.6038 109.884C24.6038 109.884 25.485 110.198 25.5479 110.387C25.6108 110.576 26.492 110.89 26.6182 111.142C26.7443 111.394 27.5623 111.708 27.5623 111.708C27.5623 111.708 28.2547 112.149 28.5061 112.275C28.7576 112.4 29.5138 112.526 29.5138 112.526C29.5138 112.526 30.0172 112.652 30.2059 112.715C30.3947 112.778 30.9613 112.778 30.9613 112.778C30.9613 112.778 31.465 112.401 31.6537 112.526C31.8425 112.652 32.2833 112.275 32.472 112.589C32.6608 112.904 33.0386 112.904 33.2274 113.156C33.4162 113.408 33.6049 113.407 33.9198 113.722C34.2347 114.036 34.5493 113.973 34.864 114.225C35.1786 114.477 35.4303 114.477 35.8081 114.477C36.1859 114.477 36.1856 114.477 36.4376 114.54C36.6896 114.603 36.8152 114.351 37.0669 114.666C37.3186 114.981 37.5073 115.169 37.6961 115.483C37.8849 115.798 38.3256 115.798 38.3885 116.301C38.4515 116.805 38.5773 116.742 38.5773 117.182C38.5773 117.623 38.829 117.812 39.0181 117.938C39.2065 118.063 39.899 118.692 39.899 118.692L40.8431 118.881L41.5985 119.447L42.4176 119.698Z" fill="#B2B2B2"/>
<path d="M62.5925 61.2446L66.3693 60.7728C66.3693 60.7728 67.691 60.7728 68.3521 60.3009C69.0133 59.829 68.3521 59.829 70.3349 59.4516C72.3177 59.0743 71.7514 58.8853 72.7901 59.074C73.8285 59.2629 74.1118 59.2629 75.2449 59.4516C76.3779 59.6403 76.6612 59.3574 77.6995 59.6403C78.7379 59.9232 79.2103 59.829 80.0602 59.829H82.7038C84.0258 59.829 85.2532 59.074 85.7253 59.5458C86.1973 60.0177 86.4806 59.829 88.0859 60.0177C89.6911 60.2064 90.352 59.8287 91.0128 60.0177C91.6737 60.2067 92.8071 59.9235 94.1288 60.0177C95.4505 60.1119 96.1116 59.9235 96.5837 59.9235C97.0557 59.9235 97.5275 59.2627 98.1886 59.829C98.8498 60.3954 99.6994 59.6403 99.7936 60.3954C99.8879 61.1504 101.116 60.5841 99.8881 61.1504C98.6607 61.7168 98.8495 61.6223 97.9996 62.3774C97.1497 63.1324 98.5662 63.793 96.7722 64.4538C94.9781 65.1147 94.6948 64.0762 94.2228 65.2089C93.7507 66.3416 94.2228 66.6245 94.1285 67.1909C94.034 67.7569 93.8452 67.8514 93.2786 68.3233C92.7123 68.7952 92.7123 68.3233 91.3904 68.6065C90.0684 68.8897 89.1243 69.1728 88.5579 69.1728C87.9916 69.1728 86.7639 69.6447 86.3861 69.8334C86.0083 70.0221 87.0472 70.3053 85.0641 70.8716C83.0811 71.438 82.609 71.3438 82.0427 72.0986C81.4764 72.8533 81.6649 72.9484 81.2873 73.4203C80.9098 73.8921 79.7766 75.7799 79.21 75.308C78.6437 74.8362 78.3601 74.9304 77.888 74.4585C77.416 73.9866 77.1327 73.3261 76.8494 72.9484C76.5661 72.5707 76.4715 71.627 76.3773 71.0606C76.283 70.4943 75.4329 69.1731 76.3773 69.3618C77.3214 69.5505 77.888 69.4563 78.1713 69.2676C78.4546 69.0789 78.7379 68.4181 78.7379 68.4181C78.7379 68.4181 78.6437 67.3798 78.3601 66.8135C78.0765 66.2471 78.2658 65.7752 77.7938 65.2092C77.3217 64.6428 77.3217 64.7373 76.6606 64.1709C75.9995 63.6046 76.1885 63.3214 75.1499 63.2272C74.1112 63.133 73.8279 62.8495 73.4501 62.944C73.0723 63.0385 71.8451 62.2832 73.1668 62.189C74.4885 62.0947 75.7162 62.2832 75.7162 62.2832C75.7162 62.2832 77.4157 61.5281 76.8494 61.4339C76.2831 61.3394 77.699 60.4899 76.3773 60.7731C75.0556 61.0562 73.5449 61.4339 73.1671 61.5281C72.7892 61.6223 71.8451 61.7168 70.901 62C69.9568 62.2832 68.8236 62.189 68.2573 62.8495C67.6907 63.5101 68.2573 63.6046 67.6907 63.5101C67.1244 63.4159 68.1628 62.8495 66.8411 63.5101C65.5194 64.1707 65.897 64.0764 65.2361 63.8878C64.575 63.6991 64.103 63.4159 64.103 63.4159C64.103 63.4159 64.9531 63.3214 63.7254 63.2272C62.4977 63.133 62.498 63.133 62.0259 62.5663C61.5538 61.9997 61.8371 62 62.1202 61.8113C62.4032 61.6226 62.5925 61.2446 62.5925 61.2446Z" fill="#B2B2B2"/>
<path d="M60.515 65.4917C60.043 65.9636 58.9098 66.6244 59.1934 66.9076C59.4769 67.1908 59.6654 68.229 60.232 67.9458C60.7983 67.6627 60.1375 66.7189 62.3091 67.474C64.4809 68.229 64.2919 67.3798 64.7639 68.5122C65.236 69.6446 65.6135 70.4939 65.3302 70.7773C65.047 71.0608 64.9527 71.3437 64.0083 71.6269C63.0639 71.9101 62.6863 72.2877 63.3474 72.7593C64.0086 73.2309 65.236 73.7031 65.8023 73.9865C66.3686 74.27 68.0684 74.3642 67.2185 73.4205C66.3686 72.4767 67.4073 72.1932 67.4073 72.1932C67.4073 72.1932 69.0125 73.4205 68.4462 72.0046C67.8799 70.5887 67.5018 70.5889 67.8796 70.5889C68.2575 70.5889 69.0125 71.0608 69.0125 71.0608L69.3904 70.3058L69.0125 69.0788L67.7851 67.8519C67.7851 67.8519 68.8235 66.9082 67.4073 66.7195C65.9911 66.5308 66.0853 66.5308 65.33 66.0586C64.5746 65.5865 64.4804 65.3981 63.0639 65.6812C61.6474 65.9644 61.1756 66.1531 61.1756 66.1531L60.515 65.4917Z" fill="#B2B2B2"/>
<path d="M39.459 66.6247C40.0256 66.0583 41.5363 64.7372 42.1029 65.1146C42.6692 65.492 43.5188 64.8314 44.1799 65.3978C44.8411 65.9641 45.5962 66.6247 46.1627 66.8134C46.7293 67.0021 47.3902 66.3415 47.9568 66.6247C48.5231 66.9079 50.5059 65.2091 50.1283 66.5305C49.7508 67.8519 50.6004 68.2293 49.5617 68.3238C48.5231 68.4183 47.3902 69.1733 46.9178 68.8901C46.4455 68.607 46.0679 68.3238 45.3126 68.7014C44.5572 69.0791 44.935 69.0788 44.0851 68.8901C43.2352 68.7014 43.0468 69.0788 42.858 68.7956C42.6689 68.5127 42.1026 68.607 42.1969 67.7574C42.2911 66.9079 42.5744 67.0024 42.0078 67.0024C41.4415 67.0024 40.9694 67.0968 40.5916 66.8137C40.2138 66.5305 39.459 66.6247 39.459 66.6247Z" fill="#B2B2B2"/>
</g>
<path d="M122.281 16.0626C121.991 16.0851 121.713 16.1917 121.482 16.3695C121.251 16.5472 121.077 16.7883 120.981 17.0634C120.885 17.3385 120.871 17.6357 120.941 17.9185C121.011 18.2014 121.162 18.4578 121.375 18.6563C122.993 20.2816 124 22.5068 124 25.0001C124 27.4832 122.995 29.7161 121.375 31.3438C121.235 31.4834 121.125 31.649 121.049 31.8313C120.974 32.0136 120.935 32.209 120.935 32.4063C120.935 32.6037 120.974 32.799 121.049 32.9814C121.125 33.1637 121.235 33.3293 121.375 33.4688C121.515 33.6084 121.68 33.719 121.862 33.7946C122.045 33.8701 122.24 33.9089 122.438 33.9089C122.635 33.9089 122.83 33.8701 123.013 33.7946C123.195 33.719 123.36 33.6084 123.5 33.4688C125.658 31.3006 127 28.291 127 25.0001C127 21.7034 125.656 18.6981 123.5 16.5313C123.363 16.3865 123.198 16.2705 123.016 16.19C122.834 16.1095 122.637 16.0662 122.438 16.0626C122.385 16.0599 122.333 16.0599 122.281 16.0626ZM107.375 16.0938C107.043 16.1378 106.735 16.2918 106.5 16.5313C104.342 18.6996 103 21.7092 103 25.0001C103 28.2968 104.344 31.3021 106.5 33.4688C106.64 33.6084 106.805 33.719 106.987 33.7946C107.17 33.8701 107.365 33.9089 107.562 33.9089C107.76 33.9089 107.955 33.8701 108.138 33.7946C108.32 33.719 108.485 33.6084 108.625 33.4688C108.765 33.3293 108.875 33.1637 108.951 32.9814C109.026 32.799 109.065 32.6037 109.065 32.4063C109.065 32.209 109.026 32.0136 108.951 31.8313C108.875 31.649 108.765 31.4834 108.625 31.3438C107.007 29.7186 106 27.4934 106 25.0001C106 22.517 107.005 20.2841 108.625 18.6563C108.852 18.4361 109.003 18.1499 109.058 17.8385C109.112 17.527 109.067 17.2063 108.928 16.9222C108.79 16.638 108.565 16.4049 108.286 16.2562C108.007 16.1074 107.688 16.0506 107.375 16.0938ZM111.188 19.4063C110.859 19.4417 110.551 19.5845 110.312 19.8126C108.901 21.0935 108 22.9535 108 25.0001C108 27.0477 108.869 28.9093 110.281 30.1876C110.427 30.321 110.597 30.4243 110.783 30.4918C110.969 30.5593 111.166 30.5895 111.363 30.5808C111.56 30.5721 111.754 30.5246 111.933 30.4411C112.112 30.3575 112.273 30.2395 112.406 30.0938C112.54 29.9481 112.643 29.7776 112.71 29.592C112.778 29.4063 112.808 29.2092 112.799 29.0119C112.791 28.8146 112.743 28.6209 112.66 28.4419C112.576 28.263 112.458 28.1022 112.312 27.9688C111.506 27.2391 111 26.1904 111 25.0001C111 23.8167 111.502 22.7664 112.312 22.0313C112.552 21.8229 112.719 21.5438 112.79 21.2343C112.861 20.9248 112.831 20.6008 112.706 20.309C112.581 20.0172 112.367 19.7726 112.094 19.6104C111.821 19.4482 111.504 19.3767 111.188 19.4063ZM118.594 19.4063C118.296 19.4229 118.011 19.5277 117.773 19.7073C117.535 19.8868 117.357 20.1331 117.259 20.4146C117.162 20.6961 117.151 21.0002 117.227 21.2882C117.303 21.5761 117.464 21.8348 117.688 22.0313C118.494 22.761 119 23.8097 119 25.0001C119 26.1835 118.498 27.2337 117.688 27.9688C117.52 28.0935 117.38 28.2518 117.277 28.4336C117.175 28.6154 117.111 28.8166 117.09 29.0244C117.07 29.2323 117.093 29.4421 117.158 29.6405C117.223 29.8389 117.329 30.0216 117.469 30.1767C117.609 30.3318 117.779 30.456 117.97 30.5414C118.161 30.6268 118.367 30.6714 118.576 30.6724C118.785 30.6734 118.991 30.6308 119.183 30.5474C119.374 30.4639 119.546 30.3413 119.688 30.1876C121.099 28.9067 122 27.0467 122 25.0001C122 22.9524 121.131 21.0909 119.719 19.8126C119.569 19.6713 119.392 19.5624 119.198 19.4925C119.005 19.4226 118.799 19.3933 118.594 19.4063ZM115 23.1876C113.997 23.1876 113.188 23.9961 113.188 25.0001C113.188 26.0001 113.997 26.8126 115 26.8126C116.003 26.8126 116.812 26.0001 116.812 25.0001C116.812 23.9961 116.003 23.1876 115 23.1876Z" fill="#FF5900"/>
<defs>
<clipPath id="clip0_242_285">
<rect width="219" height="112" fill="white" transform="translate(5 59)"/>
</clipPath>
</defs>
</svg>
