<svg width="70" height="70" viewBox="0 0 70 70" fill="none" xmlns="http://www.w3.org/2000/svg">
<circle cx="35" cy="35" r="35" fill="#293A3D"/>
<path d="M45.3374 27.0169C45.6904 25.9079 45.8846 24.727 45.8846 23.5001C45.8846 17.1492 40.7879 12.0001 34.5 12.0001C28.2121 12.0001 23.1154 17.1492 23.1154 23.5001C23.1154 24.727 23.3096 25.9079 23.6626 27.0169C19.2055 28.5759 16 32.8424 16 37.8751C16 44.2259 21.0967 49.3751 27.3846 49.3751C29.8501 49.3751 32.1242 48.5722 33.9877 47.226L28.2883 41.4688H25.25C24.8565 41.4688 24.5385 41.1475 24.5385 40.7501C24.5385 40.3526 24.8565 40.0313 25.25 40.0313H28.0962V37.1563C28.0962 36.7588 28.4142 36.4376 28.8077 36.4376C29.2012 36.4376 29.5192 36.7588 29.5192 37.1563V40.6789L33.7885 44.9892V36.0178L31.1558 33.3584C30.8776 33.0774 30.9082 32.6541 31.1871 32.3723C31.4653 32.0913 31.8517 32.0273 32.1292 32.3076L34.5 34.7025L36.841 32.3378C37.1192 32.0568 37.5795 32.0467 37.8577 32.327C38.136 32.6073 38.1352 33.063 37.857 33.3441L35.2115 36.0164V44.99L39.4808 40.6767V37.1563C39.4808 36.7588 39.7988 36.4376 40.1923 36.4376C40.5858 36.4376 40.9038 36.7588 40.9038 37.1563V40.0313H43.75C44.1435 40.0313 44.4615 40.3526 44.4615 40.7501C44.4615 41.1475 44.1435 41.4688 43.75 41.4688H40.7117L35.0123 47.226C36.8765 48.5722 39.1499 49.3751 41.6154 49.3751C47.9032 49.3751 53 44.2259 53 37.8751C53 32.8424 49.7945 28.5759 45.3374 27.0169Z" fill="#FBFBFB"/>
<path d="M31.6543 50.0657V57.2813C31.6543 57.6787 31.9724 58 32.3658 58H36.6351C37.0285 58 37.3466 57.6787 37.3466 57.2813V50.0657C36.3348 49.7035 35.3771 49.2248 34.5005 48.6311C33.6238 49.2248 32.6661 49.7035 31.6543 50.0657Z" fill="#FBFBFB"/>
</svg>
