<svg width="70" height="70" viewBox="0 0 70 70" fill="none" xmlns="http://www.w3.org/2000/svg">
<circle cx="35" cy="35" r="35" fill="#293A3D"/>
<path d="M28.0217 34.5C28.0217 36.35 28.0217 38.2 28.2438 40.05H27.8181C25.8128 40.619 23.8947 41.4593 22.1172 42.5475C21.0522 43.1863 20.0539 43.93 19.1371 44.7675C17.092 41.7197 16 38.1328 16 34.463C16 30.7932 17.092 27.2063 19.1371 24.1585C20.0539 24.996 21.0522 25.7397 22.1172 26.3785C23.8842 27.4924 25.7963 28.3577 27.7996 28.95H28.2438C28.0957 30.8 28.0217 32.65 28.0217 34.5ZM20.2477 22.697C21.1593 23.5461 22.1582 24.2964 23.2277 24.9355C24.8191 25.8828 26.5313 26.6109 28.3178 27.1C28.5278 24.8868 28.899 22.6918 29.4284 20.5325C29.757 19.0645 30.2474 17.6375 30.8906 16.2775C26.7115 17.1342 22.9539 19.4007 20.2477 22.697ZM38.0353 16.333C38.6786 17.693 39.169 19.12 39.4976 20.588C40.0243 22.7291 40.3955 24.9054 40.6081 27.1C42.4024 26.5993 44.1208 25.8588 45.7167 24.8985C46.8038 24.2743 47.8214 23.5363 48.7523 22.697C46.0186 19.4068 42.2336 17.1592 38.0353 16.333ZM30.2058 41.4005C30.4422 43.9758 30.9004 46.5259 31.5755 49.0225C31.9231 50.423 32.4783 51.7637 33.2228 53H34.5H35.7772C36.5183 51.7752 37.0734 50.4472 37.4245 49.0595C38.0996 46.5629 38.5578 44.0128 38.7942 41.4375C35.9626 40.8517 33.0423 40.8391 30.2058 41.4005ZM38.9423 29.4495C37.4785 29.7329 35.991 29.8754 34.5 29.875C33.009 29.8754 31.5215 29.7329 30.0577 29.4495C29.9282 31.022 29.8726 32.724 29.8726 34.5C29.8726 36.276 29.8726 37.978 30.0577 39.569C32.9923 39.0045 36.0077 39.0045 38.9423 39.569C39.0718 37.9965 39.1274 36.2945 39.1274 34.5185C39.1274 32.7425 39.0718 31.022 38.9423 29.4495ZM37.4245 19.9775C37.0769 18.577 36.5217 17.2363 35.7772 16H34.5H33.2228C32.4817 17.2248 31.9266 18.5528 31.5755 19.9405C30.9004 22.4371 30.4422 24.9872 30.2058 27.5625C33.0398 28.1361 35.9602 28.1361 38.7942 27.5625C38.5557 24.9996 38.0975 22.462 37.4245 19.9775ZM49.8629 24.1955C48.9461 25.033 47.9478 25.7767 46.8828 26.4155C45.1073 27.5166 43.1891 28.3693 41.1819 28.95H40.7562C40.9043 30.8 40.9783 32.65 40.9783 34.5C40.9783 36.35 40.9783 38.2 40.7562 40.05L41.2004 40.161C43.1999 40.7301 45.1118 41.5704 46.8828 42.6585C47.9478 43.2973 48.9461 44.041 49.8629 44.8785C51.908 41.8307 53 38.2438 53 34.574C53 30.9042 51.908 27.3173 49.8629 24.2695V24.1955ZM45.7723 44.0645C44.1809 43.1172 42.4687 42.3891 40.6822 41.9C40.4722 44.1132 40.101 46.3082 39.5716 48.4675C39.243 49.9355 38.7526 51.3625 38.1093 52.7225C42.3077 51.8963 46.0926 49.6487 48.8263 46.3585C47.8942 45.4858 46.8702 44.7166 45.7723 44.0645ZM29.5024 48.412C28.9757 46.2709 28.6045 44.0946 28.3919 41.9C26.5976 42.4007 24.8792 43.1412 23.2833 44.1015C22.1962 44.7257 21.1786 45.4636 20.2477 46.303C22.9814 49.5932 26.7664 51.8408 30.9647 52.667C30.3214 51.307 29.831 49.88 29.5024 48.412Z" fill="#FBFBFB"/>
</svg>
