<svg width="70" height="70" viewBox="0 0 70 70" fill="none" xmlns="http://www.w3.org/2000/svg">
<circle cx="35" cy="35" r="35" fill="#293A3D"/>
<path fill-rule="evenodd" clip-rule="evenodd" d="M36.8125 36.5C36.8125 36.0768 36.6911 35.686 36.4922 35.3438H32.5078C32.3089 35.686 32.1875 36.0768 32.1875 36.5C32.1875 37.7765 33.2235 38.8125 34.5 38.8125C35.7765 38.8125 36.8125 37.7765 36.8125 36.5ZM39.125 36.5C39.125 39.0542 37.0542 41.125 34.5 41.125C31.9458 41.125 29.875 39.0542 29.875 36.5C29.875 36.0976 29.9374 35.7126 30.038 35.3438H16V48.0625C16 50.6167 18.0708 52.6875 20.625 52.6875H48.375C50.9292 52.6875 53 50.6167 53 48.0625V35.3438H38.962C39.0626 35.7126 39.125 36.0976 39.125 36.5ZM39.125 22.625H29.875V21.4688C29.875 20.8305 30.393 20.3125 31.0312 20.3125H37.9688C38.607 20.3125 39.125 20.8305 39.125 21.4688V22.625ZM48.375 22.625H41.4375V20.3125C41.4375 19.036 40.4015 18 39.125 18H29.875C28.5985 18 27.5625 19.036 27.5625 20.3125V22.625H20.625C18.0708 22.625 16 24.6958 16 27.25V33.0312H53V27.25C53 24.6958 50.9292 22.625 48.375 22.625Z" fill="#FBFBFB"/>
</svg>
