<svg width="70" height="70" viewBox="0 0 70 70" fill="none" xmlns="http://www.w3.org/2000/svg">
<circle cx="35" cy="35" r="35" fill="#293A3D"/>
<path d="M38.3279 24.3443C40.0387 25.4169 41.2383 27.2321 41.4567 29.339C42.1544 29.665 42.9288 29.8525 43.7498 29.8525C46.747 29.8525 49.1763 27.4232 49.1763 24.4265C49.1763 21.4293 46.747 19 43.7498 19C40.7812 19.0009 38.3732 21.3868 38.3279 24.3443ZM34.7729 35.4549C37.7701 35.4549 40.1994 33.0252 40.1994 30.0284C40.1994 27.0317 37.7696 24.6024 34.7729 24.6024C31.7761 24.6024 29.3455 27.0321 29.3455 30.0289C29.3455 33.0256 31.7761 35.4549 34.7729 35.4549ZM37.0747 35.8248H32.4701C28.639 35.8248 25.5222 38.942 25.5222 42.7732V48.4042L25.5365 48.4924L25.9244 48.6139C29.5805 49.7562 32.7569 50.1372 35.3713 50.1372C40.4778 50.1372 43.4376 48.6813 43.62 48.5885L43.9825 48.4051H44.0213V42.7732C44.0227 38.942 40.9059 35.8248 37.0747 35.8248ZM46.0525 30.2228H41.4835C41.4341 32.0509 40.6537 33.697 39.4195 34.881C42.8249 35.8936 45.3165 39.0515 45.3165 42.7815V44.5167C49.8278 44.3514 52.4274 43.0729 52.5987 42.987L52.9612 42.8032H53V37.1703C53 33.3396 49.8832 30.2228 46.0525 30.2228ZM25.2512 29.8534C26.3127 29.8534 27.3004 29.5436 28.1371 29.0158C28.4031 27.281 29.333 25.7651 30.6615 24.7326C30.667 24.631 30.6767 24.5304 30.6767 24.4279C30.6767 21.4307 28.247 19.0014 25.2512 19.0014C22.2535 19.0014 19.8247 21.4307 19.8247 24.4279C19.8247 27.4237 22.2535 29.8534 25.2512 29.8534ZM30.1245 34.881C28.8962 33.703 28.1186 32.0657 28.0618 30.2487C27.8924 30.2362 27.7247 30.2228 27.5521 30.2228H22.9479C19.1168 30.2228 16 33.3396 16 37.1703V42.8023L16.0143 42.8891L16.4022 43.0114C19.3352 43.9271 21.9529 44.3491 24.2265 44.4821V42.7815C24.2275 39.0515 26.7181 35.8945 30.1245 34.881Z" fill="#FBFBFB"/>
</svg>
