<svg width="141" height="25" viewBox="0 0 141 25" fill="none" xmlns="http://www.w3.org/2000/svg">
<path d="M12.5 0L15.3064 8.63729H24.3882L17.0409 13.9754L19.8473 22.6127L12.5 17.2746L5.15268 22.6127L7.95911 13.9754L0.611794 8.63729H9.69357L12.5 0Z" fill="#FF5900"/>
<path d="M41.5 0L44.3064 8.63729H53.3882L46.0409 13.9754L48.8473 22.6127L41.5 17.2746L34.1527 22.6127L36.9591 13.9754L29.6118 8.63729H38.6936L41.5 0Z" fill="#FF5900"/>
<path d="M70.5 0L73.5309 8.63729H83.3393L75.4042 13.9754L78.4351 22.6127L70.5 17.2746L62.5649 22.6127L65.5958 13.9754L57.6607 8.63729H67.4691L70.5 0Z" fill="#FF5900"/>
<path d="M99.5 0L102.306 8.63729H111.388L104.041 13.9754L106.847 22.6127L99.5 17.2746L92.1527 22.6127L94.9591 13.9754L87.6118 8.63729H96.6936L99.5 0Z" fill="#FF5900"/>
<path d="M128.5 0L131.306 8.63729H140.388L133.041 13.9754L135.847 22.6127L128.5 17.2746L121.153 22.6127L123.959 13.9754L116.612 8.63729H125.694L128.5 0Z" fill="#FF5900"/>
</svg>
